<svg width="375" height="812" viewBox="0 0 375 812" fill="none" xmlns="http://www.w3.org/2000/svg">
<g clip-path="url(#clip0)">
<path d="M0 0H375V812H0V0Z" fill="url(#paint0_linear)" fill-opacity="0.6"/>
<path fill-rule="evenodd" clip-rule="evenodd" d="M1815.98 610.391C1815.98 610.391 1575.24 916.723 1180.23 671.742C785.23 426.762 533.959 461.755 284.681 496.832C35.4027 531.909 -545.278 720.208 -1028.3 33.7078C-1511.32 -652.792 -1844.95 -10.5057 -1844.95 -10.5057L-1808.33 -457.758L1906.86 204.106L1815.98 610.391Z" fill="url(#paint1_linear)" fill-opacity="0.6"/>
<path opacity="0.335088" fill-rule="evenodd" clip-rule="evenodd" d="M-626.245 18.8547C-626.245 18.8547 -682.219 158.893 -368.462 102.087C-197.521 71.1375 -87.0682 75.9647 -1.71749 123.382C83.6331 170.799 438.532 246.538 617.491 -68.5173C796.45 -383.573 806.058 19.6315 806.058 19.6315L785.081 -217.462L-659.945 -208.192L-626.245 18.8547Z" fill="url(#paint2_linear)"/>
</g>
<defs>
<linearGradient id="paint0_linear" x1="129.658" y1="65.7865" x2="279.26" y2="156.569" gradientUnits="userSpaceOnUse">
<stop stop-color="#9A9FD6"/>
<stop offset="1" stop-color="#604AC5"/>
</linearGradient>
<linearGradient id="paint1_linear" x1="-547.741" y1="22.8325" x2="663.547" y2="1029.5" gradientUnits="userSpaceOnUse">
<stop stop-color="#9A9FD6"/>
<stop offset="1" stop-color="#604AC5"/>
</linearGradient>
<linearGradient id="paint2_linear" x1="-530.575" y1="-374.308" x2="3.37932" y2="-441.389" gradientUnits="userSpaceOnUse">
<stop stop-color="#EBF1FA"/>
<stop offset="1" stop-color="#5F49C4"/>
</linearGradient>
<clipPath id="clip0">
<rect width="375" height="812" fill="white"/>
</clipPath>
</defs>
</svg>
