<svg width="123" height="247" viewBox="0 0 123 247" fill="none" xmlns="http://www.w3.org/2000/svg">
<path d="M74.6998 90.7998C74.4998 97.0998 74.2998 103.3 74.1998 109.6C72.1998 110.5 69.2998 111.5 65.5998 111.7C59.3998 112.1 54.4998 110.2 52.1998 109C51.8998 103.7 51.6998 98.4998 51.3998 93.1998C59.0998 92.3998 66.8998 91.5998 74.6998 90.7998Z" fill="#263959"/>
<path d="M109.5 72.6997C112.1 74.2997 114.7 75.8997 117.2 77.5997C117.3 78.8997 117.3 80.3997 117 82.0997C116.1 87.5997 112.9 91.1997 111.3 92.7997C108 92.6997 104.7 92.4997 101.5 92.3997C101.7 90.1997 102.1 87.6997 103 84.8997C104.8 79.2997 107.5 75.2997 109.5 72.6997Z" fill="#93B2C9"/>
<path d="M24.3998 54.5996C21.3998 54.9996 18.3998 55.3996 15.2998 55.7996C14.6998 56.8996 13.9998 58.2996 13.5998 59.9996C12.0998 65.2996 13.5998 69.9996 14.3998 72.0996C17.3998 73.2996 20.4998 74.5996 23.4998 75.7996C24.1998 73.7996 24.8998 71.2996 25.2998 68.3996C25.9998 62.5996 25.1998 57.7996 24.3998 54.5996Z" fill="#93B2C9"/>
<path d="M78.4565 44.5066C79.0727 43.3446 80.1652 41.041 79.8159 38.1622C79.3013 33.6638 75.4487 29.7963 70.1042 28.4336C71.6763 25.9885 73.5643 22.2824 74.6487 17.4788C76.5032 9.63277 75.7539 0.595154 73.9331 0.361065C72.2523 0.106523 69.6555 7.27499 68.4909 12.0188C66.8721 18.5441 67.1306 24.2233 67.6828 28.0015C66.3841 28.4057 65.0052 28.7502 63.7066 29.1544C68.663 34.2184 73.5598 39.3625 78.4565 44.5066Z" fill="#263959"/>
<path d="M103.1 95.7C102.5 96.7 101.9 97.5 101.5 98.1C91.9998 99.6 75.8998 100.8 57.0998 96C41.4998 92 29.7998 85.4 22.3998 80.4C22.1998 79.6 21.9998 78.7 21.7998 77.6C20.7998 71.7 19.9998 61.5 24.1998 50.1C26.6998 43.3 30.1998 38.1 33.2998 34.4C34.7998 32.6 36.1998 31.2 37.3998 30.1C46.8998 28.8 60.4998 28.1 76.3998 31.2C87.4998 33.3 96.6998 36.7 103.7 39.9C104.6 41.3 105.7 43.3 106.9 45.8C109.1 50.6 111.3 57.1 111.6 65.2C112.2 79.5 106.5 90.4 103.1 95.7Z" fill="#DFEBF5"/>
<path d="M103.1 95.7C93.7998 93.8 84.4998 91.8 75.1998 89.9C73.7998 83.3 72.3998 73.1 74.3998 60.8C75.7998 52.3 78.2998 45.4 80.6998 40.4C83.6998 40 87.7998 39.8 92.5998 40.5C99.0998 41.5 104 44 106.9 45.8C109.1 50.6 111.3 57.1 111.6 65.2C112.2 79.5 106.5 90.4 103.1 95.7Z" fill="#2B2045"/>
<path d="M61.2998 93.6997C57.3998 92.1997 55.2998 89.1997 54.6998 88.1997C54.3998 87.5997 54.4998 86.8998 55.0998 86.4998C55.6998 86.1998 56.3998 86.2998 56.7998 86.8998C57.2998 87.7998 59.3998 90.7997 63.4998 91.6997C66.9998 92.4998 69.8998 91.1998 70.8998 90.4998C71.4998 90.1998 72.1998 90.3998 72.5998 90.8998C72.8998 91.4998 72.6998 92.1998 72.1998 92.5998C70.8998 93.3998 67.3998 94.9998 62.9998 93.9998C62.3998 93.9998 61.7998 93.8997 61.2998 93.6997Z" fill="#263959"/>
<path d="M51.8998 84.5997C46.4998 83.8997 40.5998 82.7997 34.2998 81.2997C29.7998 80.1997 25.6998 78.9996 21.7998 77.6996C20.7998 71.7996 19.9998 61.5997 24.1998 50.1997C26.6998 43.3997 30.1998 38.1997 33.2998 34.4997C36.6998 33.4997 41.8998 32.3997 48.1998 32.6997C54.5998 32.9997 59.5998 34.4997 62.9998 35.6997C64.0998 40.6997 65.5998 49.8997 63.0998 60.9997C60.4998 72.4997 55.0998 80.5997 51.8998 84.5997Z" fill="#2B2045"/>
<path opacity="0.63" d="M106.5 81.3996C107.6 70.3996 102 60.5996 93.3998 57.1996C85.4998 54.0996 78.0998 57.4996 76.4998 58.2996C76.7998 56.5996 77.1998 54.6996 77.6998 52.6996C78.7998 48.7996 80.2998 45.5996 81.6998 43.0996C83.0998 45.4996 87.1998 51.7996 95.2998 55.5996C101.2 58.2996 106.7 58.4996 109.5 58.2996C109.9 60.7996 110.2 63.9996 109.9 67.5996C109.6 73.3996 107.9 78.1996 106.5 81.3996Z" fill="#006DAB"/>
<path opacity="0.63" d="M58.3998 70.2997C59.9998 59.2997 54.1998 49.1997 45.2998 46.0997C35.8998 42.6997 27.2998 48.5997 26.3998 49.2997C26.5998 47.7997 27.0998 46.0997 27.8998 44.1997C29.5998 40.1997 32.0998 37.5997 33.6998 36.1997C36.2998 38.5997 40.7998 42.0997 47.1998 44.4997C52.8998 46.6997 57.9998 47.1997 61.3998 47.1997C61.7998 49.6997 62.0998 52.8997 61.7998 56.4997C61.4998 62.2997 59.7998 67.0997 58.3998 70.2997Z" fill="#006DAB"/>
<path d="M78.9998 86.2997C78.5998 86.1997 78.1998 85.8997 77.8998 85.6997C76.3998 84.3997 76.1998 82.0997 77.4998 80.4997C79.0998 78.5997 82.5998 75.2997 88.1998 74.0997C92.5998 73.1997 96.2998 73.9997 98.6998 74.7997C98.6998 74.7997 98.6998 74.7997 98.7998 74.7997C100.7 75.4997 101.6 77.5997 101 79.4997C100.3 81.3997 98.1998 82.3997 96.2998 81.6997C94.7998 81.1997 92.4998 80.6997 89.7998 81.2997C86.2998 81.9997 84.0998 84.0997 83.0998 85.2997C82.0998 86.3997 80.3998 86.7997 78.9998 86.2997Z" fill="#6BBDFF"/>
<path d="M47.0998 79.2998C46.0998 78.8998 45.2998 78.0998 44.8998 76.9998C44.4998 75.8998 43.3998 73.0998 40.3998 71.2998C37.7998 69.6998 35.1998 69.6998 33.8998 69.7998C31.8998 69.9998 30.0998 68.4998 29.8998 66.4998C29.6998 64.4998 31.1998 62.6998 33.1998 62.4998C35.3998 62.2998 39.8998 62.2998 44.2998 64.9998C49.2998 68.0998 51.2998 72.7998 51.8998 74.6998C52.4998 76.5998 51.4998 78.6998 49.4998 79.2998C48.6998 79.5998 47.7998 79.5998 47.0998 79.2998Z" fill="#6BBDFF"/>
<path opacity="0.35" d="M106 84.2998C104.2 84.5998 102.3 84.7998 100.3 84.7998C89.4998 85.0998 80.7998 81.3998 75.2998 78.2998C75.6998 81.7998 76.0998 85.1998 76.4998 88.6998C85.0998 90.3998 93.6998 91.9998 102.4 93.6998C103.1 92.2998 103.8 90.6998 104.5 88.8998C105.1 87.2998 105.6 85.7998 106 84.2998Z" fill="#3B5794"/>
<path opacity="0.35" d="M56.3998 73.0998C54.2998 73.2998 52.0998 73.3998 49.7998 73.3998C39.2998 73.4998 30.1998 71.5998 22.8998 69.2998C22.9998 71.5998 23.0998 73.8998 23.1998 76.1998C27.0998 77.4998 31.4998 78.7998 36.2998 79.7998C41.8998 80.9998 47.0998 81.7998 51.7998 82.2998C52.4998 81.0998 53.0998 79.8998 53.6998 78.5998C54.6998 76.6998 55.5998 74.8998 56.3998 73.0998Z" fill="#3B5794"/>
<path d="M99.4998 125.8C101.5 118.1 101.3 113.7 98.6998 111.9C97.6998 111.2 96.6998 111.1 95.5998 111.1C94.4998 111.1 93.1998 111.1 91.2998 110.3C90.0998 109.9 89.2998 109.4 88.5998 108.9C87.4998 108.2 86.4998 107.7 85.0998 107.9C83.1998 108.2 81.6998 109.9 80.3998 112.9L82.3998 113.7C83.2998 111.4 84.3998 110.1 85.4998 110C86.0998 109.9 86.4998 110.1 87.4998 110.7C88.2998 111.1 89.1998 111.7 90.5998 112.2C92.8998 113 94.4998 113.1 95.5998 113.1C96.5998 113.1 97.0998 113.1 97.4998 113.5C98.3998 114.2 99.6998 116.6 97.4998 125.2L99.4998 125.8Z" fill="#263959"/>
<path d="M20.0998 120.6C20.3998 116.9 21.0998 114.6 22.2998 114C23.0998 113.6 23.9998 113.9 24.9998 114.2C26.3998 114.6 27.8998 115.1 29.3998 113.9C30.3998 113.1 30.6998 111.9 30.8998 111C31.0998 110.3 31.1998 109.6 31.6998 108.9C32.5998 107.6 34.2998 106.7 35.9998 106.6C37.2998 106.5 38.3998 106.9 39.0998 107.7C40.2998 109 40.3998 111.2 40.2998 112.1L42.3998 112.2C42.4998 110.7 42.2998 107.8 40.4998 105.9C39.2998 104.6 37.6998 104 35.8998 104.1C33.6998 104.2 31.4998 105.4 30.0998 107.2C29.1998 108.4 28.9998 109.5 28.7998 110.3C28.5998 111.1 28.5998 111.4 28.1998 111.7C27.5998 112.2 26.7998 112 25.4998 111.6C24.1998 111.2 22.7998 110.8 21.2998 111.6C19.2998 112.7 18.1998 115.5 17.8998 120.3L20.0998 120.6Z" fill="#263959"/>
<path d="M38.9998 116C39.1998 113.7 39.4998 111.5 39.6998 109.2C40.0998 108.9 40.8998 108.4 41.9998 108.2C43.3998 108 44.4998 108.4 44.9998 108.6C45.3998 109.8 45.6998 111 46.0998 112.2C48.1998 112 50.2998 111.8 52.3998 111.6C52.5998 109.2 52.8998 106.8 53.0998 104.3C53.9998 103.6 57.9998 100.9 63.4998 101.6C69.6998 102.3 73.0998 106.6 73.6998 107.4C73.4998 109.5 73.1998 111.6 72.9998 113.6C74.4998 113.9 75.8998 114.3 77.3998 114.6C77.9998 113.5 78.5998 112.4 79.1998 111.3C79.6998 111.2 80.9998 110.8 82.4998 111.3C83.9998 111.8 84.8998 112.8 85.1998 113.2C85.0998 115.5 84.9998 117.8 84.9998 120.1C69.5998 118.7 54.2998 117.3 38.9998 116Z" fill="#263959"/>
<path d="M35.9998 158.9C35.8998 160.4 35.8998 163 37.2998 165.7C40.3998 172 47.6998 173.1 48.4998 173.2C48.5998 180.3 48.5998 187.5 48.6998 194.6C49.8998 195.3 52.8998 196.9 56.9998 196.9C61.5998 196.9 64.8998 194.8 65.9998 194C66.0998 187.4 66.2998 180.8 66.3998 174.2C67.5998 174.2 74.4998 173.9 78.8998 168.4C80.7998 166.1 81.4998 163.7 81.8998 162.1C66.5998 161.1 51.2998 160 35.9998 158.9Z" fill="#1D2C45"/>
<path d="M11.7998 120.5C24.5998 117.7 40.4998 115.2 58.7998 114.8C80.1998 114.3 98.5998 116.7 112.9 119.7C114.8 122.6 117.7 127.8 118.5 135C119.9 148.1 113.1 157.8 111.3 160.2C98.1998 163 81.3998 165.3 61.6998 165.1C41.6998 164.9 24.5998 162 11.4998 158.8C9.69977 155.9 6.59977 149.8 6.19977 141.4C5.69977 131 9.99977 123.4 11.7998 120.5Z" fill="#D2DEE8"/>
<path d="M77.4997 158.299C70.9997 160.199 61.8997 161.999 50.9997 161.699C44.1997 161.499 38.1997 160.499 33.3997 159.399C31.7997 155.699 29.0997 148.099 29.7997 138.399C30.3997 129.899 33.3997 123.599 35.2997 120.099C40.6997 118.699 48.4997 117.299 57.9997 117.899C66.2997 118.399 73.0997 120.099 78.0997 121.799L77.4997 158.299Z" fill="#93B2C9"/>
<path d="M38.7998 121.2C37.1998 123.7 35.4998 126.9 34.3998 130.8C30.7998 143.4 35.4998 154.3 37.3998 158.1C41.1998 159.1 45.4998 159.9 50.3998 160.4C61.3998 161.4 70.7998 159.9 77.4998 158.2C79.1998 155.3 82.0998 149.4 82.4998 141.6C83.0998 131.9 79.5998 124.7 77.9998 121.6C72.3998 120.4 65.2998 119.3 57.0998 119.3C49.9998 119.4 43.7998 120.2 38.7998 121.2Z" fill="#2B2045"/>
<path d="M18.6395 150.444C22.3217 150.079 24.8396 145.062 24.2634 139.236C23.6873 133.411 20.2352 128.983 16.553 129.347C12.8709 129.712 10.3529 134.729 10.9291 140.555C11.5052 146.38 14.9573 150.808 18.6395 150.444Z" fill="#93B2C9"/>
<path d="M98.3466 152.936C103.678 152.408 107.484 146.768 106.848 140.338C106.212 133.908 101.374 129.123 96.0435 129.65C90.7125 130.178 86.9066 135.818 87.5426 142.248C88.1786 148.678 93.0157 153.463 98.3466 152.936Z" fill="#93B2C9"/>
<path d="M18.4997 146.3C18.5997 147.3 19.1997 148.1 19.8997 148C20.5997 147.9 21.0997 147.1 20.9997 146.1C20.8997 145.1 20.2997 144.3 19.5997 144.4C18.8997 144.4 18.3997 145.3 18.4997 146.3Z" fill="#617585"/>
<path d="M18.7777 136.484C19.4922 136.413 19.992 135.554 19.8942 134.565C19.7963 133.575 19.1378 132.831 18.4234 132.901C17.7089 132.972 17.2091 133.831 17.3069 134.82C17.4048 135.81 18.0633 136.554 18.7777 136.484Z" fill="#617585"/>
<path d="M15.3998 143.5C15.4998 144.5 16.0998 145.3 16.7998 145.2C17.4998 145.1 17.9998 144.3 17.8998 143.3C17.7998 142.3 17.1998 141.5 16.4998 141.6C15.7998 141.6 15.2998 142.5 15.3998 143.5Z" fill="#617585"/>
<path d="M21.0998 142.9C21.1998 143.9 21.7998 144.7 22.4998 144.6C23.1998 144.5 23.6998 143.7 23.5998 142.7C23.4998 141.7 22.8998 140.9 22.1998 141C21.4998 141.1 20.9998 141.9 21.0998 142.9Z" fill="#617585"/>
<path d="M19.3752 142.483C20.0896 142.413 20.5895 141.553 20.4917 140.564C20.3938 139.575 19.7353 138.83 19.0209 138.901C18.3064 138.972 17.8065 139.831 17.9044 140.82C18.0022 141.809 18.6607 142.554 19.3752 142.483Z" fill="#617585"/>
<path d="M14.8998 138C14.9998 139 15.5998 139.8 16.2998 139.7C16.9998 139.6 17.4998 138.8 17.3998 137.8C17.2998 136.8 16.6998 136 15.9998 136.1C15.2998 136.2 14.7998 137 14.8998 138Z" fill="#617585"/>
<path d="M20.4997 137.5C20.5997 138.5 21.1997 139.3 21.8997 139.2C22.5997 139.1 23.0997 138.3 22.9997 137.3C22.8997 136.3 22.2997 135.5 21.5997 135.6C20.8997 135.6 20.3997 136.5 20.4997 137.5Z" fill="#617585"/>
<path d="M96.7998 148C96.8998 149 97.5998 149.7 98.4998 149.7C99.2998 149.6 99.8998 148.7 99.7998 147.7C99.6998 146.7 98.9998 146 98.0998 146C97.2998 146.2 96.6998 147 96.7998 148Z" fill="#617585"/>
<path d="M95.6998 136.5C95.7998 137.5 96.4998 138.2 97.3998 138.2C98.1998 138.1 98.7998 137.2 98.6998 136.2C98.5998 135.2 97.8998 134.5 96.9998 134.5C96.0998 134.6 95.5998 135.5 95.6998 136.5Z" fill="#617585"/>
<path d="M93.2998 145.299C93.3998 146.299 94.0998 146.999 94.9998 146.999C95.7998 146.899 96.3998 145.999 96.2998 144.999C96.1998 143.999 95.4998 143.299 94.5998 143.299C93.6998 143.299 93.1998 144.299 93.2998 145.299Z" fill="#617585"/>
<path d="M99.8998 144.6C99.9998 145.6 100.7 146.3 101.6 146.3C102.4 146.2 103 145.3 102.9 144.3C102.8 143.3 102.1 142.6 101.2 142.6C100.4 142.7 99.7998 143.6 99.8998 144.6Z" fill="#617585"/>
<path d="M96.2998 142.6C96.3998 143.6 97.0998 144.3 97.9998 144.3C98.7998 144.2 99.3998 143.3 99.2998 142.3C99.1998 141.3 98.4998 140.6 97.5998 140.6C96.6998 140.7 96.1998 141.6 96.2998 142.6Z" fill="#617585"/>
<path d="M94.3692 141.388C95.1936 141.307 95.7826 140.439 95.6847 139.45C95.5869 138.46 94.8393 137.724 94.0149 137.806C93.1906 137.888 92.6016 138.756 92.6994 139.745C92.7973 140.734 93.5449 141.47 94.3692 141.388Z" fill="#617585"/>
<path d="M100.974 140.786C101.798 140.705 102.387 139.837 102.289 138.847C102.192 137.858 101.444 137.122 100.62 137.204C99.7952 137.285 99.2062 138.154 99.304 139.143C99.4019 140.132 100.149 140.868 100.974 140.786Z" fill="#617585"/>
<path d="M46.5997 181.2L65.4997 183.9C67.2997 184.2 68.8997 182.9 69.1997 181.1C69.4997 179.3 68.1997 177.7 66.3997 177.4L47.4997 174.7C45.6997 174.4 44.0997 175.7 43.7997 177.5C43.5997 179.3 44.7997 181 46.5997 181.2Z" fill="#1D2C45"/>
<path d="M46.2998 186.7L65.1998 189.4C66.9998 189.7 68.5998 188.4 68.8998 186.6C69.1998 184.8 67.8998 183.2 66.0998 182.9L47.1998 180.2C45.3998 179.9 43.7998 181.2 43.4998 183C43.2998 184.8 44.4998 186.5 46.2998 186.7Z" fill="#1D2C45"/>
<path d="M52.6997 144.5C52.1997 144.2 51.5997 143.7 51.1997 142.9C50.6997 142.2 50.4997 141.3 50.4997 140.2C50.4997 139.2 50.7997 138.5 51.2997 138C51.7997 137.5 52.5997 137.1 53.5997 136.9L57.2997 136C58.8997 135.6 59.6997 134.8 59.6997 133.7C59.6997 133.1 59.3997 132.6 58.7997 132.1C58.1997 131.7 57.1997 131.4 55.7997 131.4C54.4997 131.4 53.2997 131.6 52.0997 131.9C50.9997 132.2 49.9997 132.6 49.2997 133.1C48.7997 132.7 48.2997 132.2 47.8997 131.6C47.4997 131 47.2997 130.3 47.2997 129.5C47.2997 128.7 47.4997 127.9 47.9997 127.3C48.4997 126.7 49.0997 126.2 49.9997 125.8C50.7997 125.4 51.7997 125.1 52.9997 124.9C54.1997 124.7 55.3997 124.6 56.7997 124.6C60.5997 124.6 63.3997 125.4 65.2997 127.1C67.1997 128.8 68.1997 131 68.1997 133.7C68.1997 138.8 64.5997 142.1 57.3997 143.5L52.6997 144.5ZM51.0997 150.8C51.0997 149.5 51.4997 148.4 52.2997 147.6C53.0997 146.8 54.1997 146.3 55.6997 146.3C57.0997 146.3 58.2997 146.7 59.0997 147.6C59.8997 148.4 60.2997 149.5 60.2997 150.8C60.2997 152.1 59.8997 153.2 59.0997 154C58.2997 154.8 57.1997 155.3 55.6997 155.3C54.2997 155.3 53.0997 154.9 52.2997 154C51.4997 153.2 51.0997 152.1 51.0997 150.8Z" fill="#6BBDFF"/>
<path d="M52.6997 144.5C52.1997 144.2 51.5997 143.7 51.1997 142.9C50.6997 142.2 50.4997 141.3 50.4997 140.2C50.4997 139.2 50.7997 138.5 51.2997 138C51.7997 137.5 52.5997 137.1 53.5997 136.9L57.2997 136C58.8997 135.6 59.6997 134.8 59.6997 133.7C59.6997 133.1 59.3997 132.6 58.7997 132.1C58.1997 131.7 57.1997 131.4 55.7997 131.4C54.4997 131.4 53.2997 131.6 52.0997 131.9C50.9997 132.2 49.9997 132.6 49.2997 133.1C48.7997 132.7 48.2997 132.2 47.8997 131.6C47.4997 131 47.2997 130.3 47.2997 129.5C47.2997 128.7 47.4997 127.9 47.9997 127.3C48.4997 126.7 49.0997 126.2 49.9997 125.8C50.7997 125.4 51.7997 125.1 52.9997 124.9C54.1997 124.7 55.3997 124.6 56.7997 124.6C60.5997 124.6 63.3997 125.4 65.2997 127.1C67.1997 128.8 68.1997 131 68.1997 133.7C68.1997 138.8 64.5997 142.1 57.3997 143.5L52.6997 144.5ZM51.0997 150.8C51.0997 149.5 51.4997 148.4 52.2997 147.6C53.0997 146.8 54.1997 146.3 55.6997 146.3C57.0997 146.3 58.2997 146.7 59.0997 147.6C59.8997 148.4 60.2997 149.5 60.2997 150.8C60.2997 152.1 59.8997 153.2 59.0997 154C58.2997 154.8 57.1997 155.3 55.6997 155.3C54.2997 155.3 53.0997 154.9 52.2997 154C51.4997 153.2 51.0997 152.1 51.0997 150.8Z" fill="#6BBDFF"/>
<path d="M82.7998 200.9C83.5998 203.3 84.2998 206.1 84.5998 209.4C85.3998 219 82.3998 226.6 80.3998 230.5C82.7998 230.5 86.3998 230.9 90.2998 232.6C98.1998 236.1 101.9 242.7 103 244.9C89.3998 244.9 75.6998 244.9 62.0998 244.9C62.7998 236.6 63.4998 228.2 64.1998 219.9C63.0998 219.7 60.5998 219.2 58.6998 217.1C55.9998 214 56.4998 209.6 57.1998 207.6C59.2998 201.9 69.6998 198.9 82.7998 200.9Z" fill="#1D2C45"/>
<path d="M44.1998 206.7C40.8998 207.4 36.3998 207.9 33.4998 205.4C29.8998 202.3 30.9998 196.7 29.0998 196.3C27.0998 195.9 23.8998 201.9 21.9998 207.7C20.2998 212.8 18.3998 220.9 19.7998 232C18.3998 232.7 14.4998 234.8 12.3998 239.4C11.3998 241.6 11.0998 243.6 10.9998 245C19.8998 245 28.8998 245 37.7998 245C39.0998 236.8 40.2998 228.7 41.5998 220.5C42.4998 219.6 43.8998 217.9 44.5998 215.3C45.8998 211.3 44.6998 207.8 44.1998 206.7Z" fill="#1D2C45"/>
<path d="M81.2998 182.1C81.1998 184.4 81.0998 186.7 80.8998 189C82.3998 189.2 83.9998 189.5 85.4998 189.7C85.5998 189.7 86.7998 190.5 86.8998 192C86.8998 193 86.3998 193.9 85.4998 194.4C83.8998 194.7 82.1998 195 80.5998 195.3C84.2998 203.6 79.6998 212 73.8998 213.4C68.8998 214.6 62.1998 210.8 59.9998 203.7C58.7998 204.1 57.0998 204.5 55.0998 204.4C51.9998 204.3 49.6998 203.3 48.3998 202.6C44.5998 211.1 38.6998 216.7 34.9998 215.8C30.8998 214.8 27.4998 205.5 30.0998 193.1C28.5998 192.4 26.9998 191.7 25.4998 191C24.7998 190.5 24.2998 189.6 24.3998 188.7C24.5998 187.4 25.6998 186.8 25.7998 186.8C27.6998 186.5 29.5998 186.3 31.4998 186C31.7998 183.8 32.1998 181.6 32.4998 179.3C37.1998 177.3 46.7998 174 59.0998 175.1C69.2998 176.1 76.9998 179.7 81.2998 182.1Z" fill="#1D2C45"/>
<path d="M59.2998 208.6C58.4998 208.7 57.8998 210.6 57.9998 212C58.0998 215.3 61.2998 218.3 62.3998 217.8C63.2998 217.4 62.7998 214.4 62.2998 212.8C61.6998 211.1 60.3998 208.4 59.2998 208.6Z" fill="#1D2C45"/>
<path d="M68.1998 232.9C66.3998 233.4 65.6998 235.3 65.4998 235.8C64.5998 238.1 65.0998 241.7 66.9998 242.2C68.2998 242.6 70.1998 241.4 71.4998 239.4C74.4998 240 77.4998 240.5 80.5998 241.1C80.8998 240 81.3998 238.5 82.4998 237C84.8998 233.6 88.2998 232.5 89.4998 232.2C89.0998 231.8 88.2998 231.1 86.8998 230.8C85.7998 230.5 84.7999 230.7 84.2999 230.8C83.2999 231.4 82.0998 232.3 80.9998 233.6C79.2998 235.5 78.3998 237.3 77.8998 238.6C75.8998 238.3 73.8998 238 71.8998 237.7C72.5998 236.3 72.2998 234.6 71.2998 233.6C70.0998 232.5 68.2998 232.9 68.1998 232.9Z" fill="#1D2C45"/>
<path d="M102.9 244.9H61.9998V247.4H102.9V244.9Z" fill="#1D2C45"/>
<path d="M37.7998 244.9H11.1998V247.4H37.7998V244.9Z" fill="#1D2C45"/>
<path d="M15.6998 234.4C16.8998 234.2 18.3998 234.2 19.8998 234.5C26.3998 235.7 29.8998 241.6 30.5998 242.9C32.3998 241.9 34.0998 240.8 35.8998 239.8C35.7998 242.4 36.1998 243.2 36.6998 243.3C37.9998 243.7 41.7998 239.4 40.7998 236.1C40.4998 235.2 39.6998 233.9 38.6998 233.9C37.5998 233.9 36.3998 235.4 36.0998 237.7C34.5998 238.5 33.0998 239.3 31.5998 240.2C30.5998 237.8 29.2998 236.3 28.3998 235.5C25.6998 233.1 20.8998 230.9 17.5998 232.8C16.5998 233.3 15.9998 234 15.6998 234.4Z" fill="#1D2C45"/>
<path d="M82.7998 200.9C83.5998 203.3 84.2998 206.1 84.5998 209.4C85.3998 219 82.3998 226.6 80.3998 230.5C82.7998 230.5 86.3998 230.9 90.2998 232.6C98.1998 236.1 101.9 242.7 103 244.9C89.3998 244.9 75.6998 244.9 62.0998 244.9C62.7998 236.6 63.4998 228.2 64.1998 219.9C63.0998 219.7 60.5998 219.2 58.6998 217.1C55.9998 214 56.4998 209.6 57.1998 207.6C59.2998 201.9 69.6998 198.9 82.7998 200.9Z" fill="#DFEBF5"/>
<path d="M44.1998 206.7C40.8998 207.4 36.3998 207.9 33.4998 205.4C29.8998 202.3 30.9998 196.7 29.0998 196.3C27.0998 195.9 23.8998 201.9 21.9998 207.7C20.2998 212.8 18.3998 220.9 19.7998 232C18.3998 232.7 14.4998 234.8 12.3998 239.4C11.3998 241.6 11.0998 243.6 10.9998 245C19.8998 245 28.8998 245 37.7998 245C39.0998 236.8 40.2998 228.7 41.5998 220.5C42.4998 219.6 43.8998 217.9 44.5998 215.3C45.8998 211.3 44.6998 207.8 44.1998 206.7Z" fill="#DFEBF5"/>
<path d="M81.2998 182.1C81.1998 184.4 81.0998 186.7 80.8998 189C82.3998 189.2 83.9998 189.5 85.4998 189.7C85.5998 189.7 86.7998 190.5 86.8998 192C86.8998 193 86.3998 193.9 85.4998 194.4C83.8998 194.7 82.1998 195 80.5998 195.3C84.2998 203.6 79.6998 212 73.8998 213.4C68.8998 214.6 62.1998 210.8 59.9998 203.7C58.7998 204.1 57.0998 204.5 55.0998 204.4C51.9998 204.3 49.6998 203.3 48.3998 202.6C44.5998 211.1 38.6998 216.7 34.9998 215.8C30.8998 214.8 27.4998 205.5 30.0998 193.1C28.5998 192.4 26.9998 191.7 25.4998 191C24.7998 190.5 24.2998 189.6 24.3998 188.7C24.5998 187.4 25.6998 186.8 25.7998 186.8C27.6998 186.5 29.5998 186.3 31.4998 186C31.7998 183.8 32.1998 181.6 32.4998 179.3C37.1998 177.3 46.7998 174 59.0998 175.1C69.2998 176.1 76.9998 179.7 81.2998 182.1Z" fill="#1D2C45"/>
<path d="M59.2998 208.6C58.4998 208.7 57.8998 210.6 57.9998 212C58.0998 215.3 61.2998 218.3 62.3998 217.8C63.2998 217.4 62.7998 214.4 62.2998 212.8C61.6998 211.1 60.3998 208.4 59.2998 208.6Z" fill="#263959"/>
<path d="M68.1998 232.9C66.3998 233.4 65.6998 235.3 65.4998 235.8C64.5998 238.1 65.0998 241.7 66.9998 242.2C68.2998 242.6 70.1998 241.4 71.4998 239.4C74.4998 240 77.4998 240.5 80.5998 241.1C80.8998 240 81.3998 238.5 82.4998 237C84.8998 233.6 88.2998 232.5 89.4998 232.2C89.0998 231.8 88.2998 231.1 86.8998 230.8C85.7998 230.5 84.7999 230.7 84.2999 230.8C83.2999 231.4 82.0998 232.3 80.9998 233.6C79.2998 235.5 78.3998 237.3 77.8998 238.6C75.8998 238.3 73.8998 238 71.8998 237.7C72.5998 236.3 72.2998 234.6 71.2998 233.6C70.0998 232.5 68.2998 232.9 68.1998 232.9Z" fill="#263959"/>
<path d="M102.9 244.9H61.9998V247.4H102.9V244.9Z" fill="#263959"/>
<path d="M37.7998 244.9H11.1998V247.4H37.7998V244.9Z" fill="#263959"/>
<path d="M15.6998 234.4C16.8998 234.2 18.3998 234.2 19.8998 234.5C26.3998 235.7 29.8998 241.6 30.5998 242.9C32.3998 241.9 34.0998 240.8 35.8998 239.8C35.7998 242.4 36.1998 243.2 36.6998 243.3C37.9998 243.7 41.7998 239.4 40.7998 236.1C40.4998 235.2 39.6998 233.9 38.6998 233.9C37.5998 233.9 36.3998 235.4 36.0998 237.7C34.5998 238.5 33.0998 239.3 31.5998 240.2C30.5998 237.8 29.2998 236.3 28.3998 235.5C25.6998 233.1 20.8998 230.9 17.5998 232.8C16.5998 233.3 15.9998 234 15.6998 234.4Z" fill="#263959"/>
<path d="M116.2 119.8C116.4 119.9 120.6 121.2 121.7 125.5C122.4 128.3 121.5 131.3 119.4 133.3C119.5 135.2 119.7 137.4 119.8 139.3C120.1 143.5 120.4 147.7 120.7 151.9C122.8 154.2 123.2 157.6 121.8 160.2C120.6 162.4 118.2 164.1 115.4 164C112.7 163.9 110.1 162.2 109.1 159.5C108.3 157.1 108.9 154.4 110.7 152.6C109.4 145.7 108.2 138.8 106.9 131.9C106.8 131.5 105.7 127.1 108.7 123.4C111.6 119.8 115.6 119.8 116.2 119.8Z" fill="#263959"/>
<path d="M82.7998 166.9C86.6998 164.7 90.6998 162.3 94.8998 159.7C98.9998 157.1 102.9 154.4 106.5 151.8C111.6 151 116.7 153.1 119.3 157.2C122.2 161.8 120.6 166.8 120.3 167.6C118 171.6 114.5 176.8 109.1 182C105.4 185.5 101.7 188.1 98.5998 190C97.2998 189.9 90.8998 189.2 86.2998 183.7C80.2998 176.5 82.5998 167.6 82.7998 166.9Z" fill="#DFEBF5"/>
<path d="M87.8998 174.3C85.3998 172.7 84.0998 171.8 81.9998 171.5C78.9998 171.1 78.2998 172.5 75.0998 172.2C71.3998 171.8 69.9998 169.8 68.4998 170.7C67.3998 171.4 67.2998 173.3 67.4998 174.5C67.9998 176.6 70.0998 178.2 72.8998 178.4C72.2998 180.1 71.5998 181.8 70.9998 183.5C67.1998 185.1 65.3998 188.4 66.0998 190.6C66.4998 191.9 67.9998 193.3 69.8998 193.3C71.4998 193.3 72.8998 192.3 73.6998 190.8C74.3998 191.4 75.0998 192 75.8998 192.6C74.2998 193.7 73.6998 195.6 74.1998 197.3C74.7998 199.1 76.5998 200.1 78.0998 200.1C79.6998 200.2 80.7998 199.3 81.0998 199C81.4998 199.2 82.7998 199.6 84.3998 199.2C86.1998 198.7 87.0998 197.5 87.3998 197.1C87.7998 197.3 88.9998 197.9 90.2998 197.5C91.9998 197 93.1998 195.2 93.1998 193.1C94.7998 191.6 96.3998 190.1 97.8998 188.6C97.6998 187.2 97.2998 185.2 96.2998 183C93.9998 178.3 90.3998 175.8 87.8998 174.3Z" fill="#263959"/>
<path d="M116.8 127.4C116.5 129.3 117.2 131 118.3 131.2C119.4 131.4 120.5 129.9 120.8 128C121.1 126.1 120.4 124.4 119.3 124.2C118.2 124.1 117.1 125.5 116.8 127.4Z" fill="#DFEBF5"/>
<path d="M98.6998 181.8C98.8998 180.2 99.1998 178.3 99.9998 176C100.8 173.7 101.9 171.8 102.8 170.4C103.9 171.4 105.5 173.1 106.8 175.7C107.7 177.6 108.2 179.4 108.4 180.6C107.1 181.2 105.1 181.8 102.6 182C101 182.1 99.6998 182 98.6998 181.8Z" fill="#263959"/>
<path d="M6.49979 120.6C6.29979 120.7 2.09979 122 0.999794 126.3C0.299794 129.1 1.19979 132.1 3.29979 134.1C3.19979 136 2.99979 138.2 2.89979 140.1C2.59979 144.3 2.29979 148.5 1.99979 152.7C-0.100206 155 -0.500206 158.4 0.899794 161C2.09979 163.2 4.49979 164.9 7.29979 164.8C9.99979 164.7 12.5998 163 13.5998 160.3C14.3998 157.9 13.7998 155.2 11.9998 153.4C13.2998 146.5 14.4998 139.6 15.7998 132.7C15.8998 132.3 16.9998 127.9 13.9998 124.2C11.0998 120.7 6.99979 120.6 6.49979 120.6Z" fill="#263959"/>
<path d="M39.7998 167.7C35.8998 165.5 31.8998 163.1 27.6998 160.5C23.5998 157.9 19.6998 155.2 16.0998 152.6C10.9998 151.7 5.99977 153.9 3.39977 158C0.499773 162.6 2.09977 167.6 2.39977 168.4C4.69977 172.4 8.19977 177.6 13.5998 182.8C17.2998 186.3 20.9998 188.9 24.0998 190.8C25.3998 190.7 31.7998 190 36.3998 184.5C42.2998 177.3 40.0998 168.5 39.7998 167.7Z" fill="#DFEBF5"/>
<path d="M34.6998 175.099C37.1998 173.499 38.4998 172.599 40.5998 172.299C43.5998 171.899 44.2998 173.299 47.4998 172.999C51.1998 172.599 52.5998 170.599 54.0998 171.499C55.1998 172.199 55.2998 174.099 55.0998 175.299C54.5998 177.399 52.4998 178.999 49.6998 179.199C50.2998 180.899 50.9998 182.599 51.5998 184.299C55.3998 185.899 57.1998 189.199 56.4998 191.399C56.0998 192.699 54.5998 194.099 52.6998 194.099C51.0998 194.099 49.6998 193.099 48.8998 191.599C48.1998 192.199 47.4998 192.799 46.6998 193.399C48.2998 194.499 48.8998 196.399 48.3998 198.099C47.7998 199.899 45.9998 200.899 44.4998 200.899C42.8998 200.999 41.7998 200.099 41.4998 199.799C41.0998 199.999 39.7998 200.399 38.1998 199.999C36.3998 199.499 35.4998 198.299 35.1998 197.899C34.7998 198.099 33.5998 198.699 32.2998 198.299C30.5998 197.799 29.3998 195.999 29.3998 193.899C27.7998 192.399 26.1998 190.899 24.6998 189.399C24.8998 187.999 25.2998 185.999 26.2998 183.799C28.5998 179.099 32.2998 176.699 34.6998 175.099Z" fill="#263959"/>
<path d="M5.79978 128.299C6.09978 130.199 5.39978 131.899 4.29978 132.099C3.19978 132.299 2.09978 130.799 1.79978 128.899C1.49978 126.999 2.19978 125.299 3.29978 125.099C4.49978 124.899 5.59978 126.399 5.79978 128.299Z" fill="#DFEBF5"/>
<path d="M23.9998 182.6C23.7998 181 23.4998 179.1 22.6998 176.8C21.8998 174.5 20.7998 172.6 19.8998 171.2C18.7998 172.2 17.1998 173.9 15.8998 176.5C14.9998 178.4 14.4998 180.2 14.2998 181.4C15.5998 182 17.5998 182.6 20.0998 182.8C21.5998 183 22.8998 182.8 23.9998 182.6Z" fill="#263959"/>
</svg>
