<svg width="258" height="258" viewBox="0 0 258 258" fill="none" xmlns="http://www.w3.org/2000/svg">
<path opacity="0.335088" d="M129 258C57.7553 258 -8.75298e-06 200.245 -5.63877e-06 129C-2.52456e-06 57.7553 57.7553 -8.75298e-06 129 -5.63877e-06C200.245 -2.52456e-06 258 57.7553 258 129C258 200.245 200.245 258 129 258ZM129 25.8C72.0042 25.8 25.8 72.0042 25.8 129C25.8 185.996 72.0042 232.2 129 232.2C185.996 232.2 232.2 185.996 232.2 129C232.2 72.0042 185.996 25.8 129 25.8Z" fill="url(#paint0_angular)"/>
<path d="M129 0C163.213 4.07985e-07 196.025 13.591 220.217 37.7832C244.409 61.9754 258 94.7871 258 129C258 163.213 244.409 196.025 220.217 220.217C196.025 244.409 163.213 258 129 258V232.2C156.37 232.2 182.62 221.327 201.973 201.973C221.327 182.62 232.2 156.37 232.2 129C232.2 101.63 221.327 75.3803 201.973 56.0266C182.62 36.6728 156.37 25.8 129 25.8V0Z" fill="#6049C4"/>
<path d="M129 0C163.213 4.07985e-07 196.025 13.591 220.217 37.7832C244.409 61.9754 258 94.7871 258 129C258 163.213 244.409 196.025 220.217 220.217C196.025 244.409 163.213 258 129 258V232.2C156.37 232.2 182.62 221.327 201.973 201.973C221.327 182.62 232.2 156.37 232.2 129C232.2 101.63 221.327 75.3803 201.973 56.0266C182.62 36.6728 156.37 25.8 129 25.8V0Z" fill="#6049C4"/>
<defs>
<radialGradient id="paint0_angular" cx="0" cy="0" r="1" gradientUnits="userSpaceOnUse" gradientTransform="translate(129 129) scale(129 125.85)">
<stop stop-color="#EBF1FA"/>
<stop offset="0.520833" stop-color="#5F49C4"/>
</radialGradient>
</defs>
</svg>
