<svg width="28" height="28" viewBox="0 0 28 28" fill="none" xmlns="http://www.w3.org/2000/svg">
<path fill-rule="evenodd" clip-rule="evenodd" d="M22.5101 7.88476C22.5101 3.08258 17.5327 2 14.005 2C10.4773 2 5.49991 3.08258 5.49991 7.88476C5.49991 12.6869 10.4773 14.4752 14.005 14.4752C17.5327 14.4752 22.5101 12.6869 22.5101 7.88476ZM16.6086 17.1317C14.8727 16.9744 13.1268 16.9744 11.3909 17.1317C10.4558 17.1984 9.51058 17.3356 8.57827 17.5409C6.77881 17.9217 5.33922 18.6825 4.72649 19.9469C4.49538 20.4414 4.37919 20.9709 4.38113 21.5069C4.38046 22.0391 4.49571 22.5692 4.71853 23.0542C5.30686 24.304 6.57878 25.0114 8.29625 25.4034L8.60391 25.4694C9.51091 25.6796 10.4564 25.8212 11.4082 25.8876C11.4893 25.912 11.6825 25.9348 11.8933 25.9458L12.0668 25.9525C12.156 25.9546 12.2572 25.9552 12.408 25.9552C13.7761 26.0325 15.1943 26.01 16.606 25.8865C17.3583 25.8336 18.1156 25.7325 18.8666 25.5844L19.4285 25.4646C21.2832 25.0887 22.6719 24.3739 23.2803 23.0556C23.7314 22.0769 23.7314 20.9411 23.2805 19.9628C22.6736 18.6479 21.3026 17.939 19.4145 17.5394C18.6737 17.3769 17.921 17.2567 17.1629 17.1799L16.6086 17.1317ZM7.9374 11C6.51027 8.82871 6.51032 5.52313 9.36473 4H10.6974C11.2455 6.8 10.9257 9.83333 10.6974 11H7.9374ZM18.6353 4C21.4897 5.52313 21.4897 8.82871 20.0626 11H17.3026C17.0743 9.83333 16.7545 6.8 17.3026 4H18.6353Z" fill="#6049C4"/>
</svg>
