<svg width="28" height="28" viewBox="0 0 28 28" fill="none" xmlns="http://www.w3.org/2000/svg">
<path fill-rule="evenodd" clip-rule="evenodd" d="M25.6667 12.2348C25.6667 6.95119 21.4025 2.33301 15.7699 2.33301C10.0083 2.33301 5.83337 7.04057 5.83337 12.2646C5.83337 13.1982 5.98551 14.1473 6.26894 15.0772C5.48811 15.8072 5.00006 16.8465 5.00006 17.9998C5.00006 18.4094 5.06165 18.8047 5.17606 19.1768C4.48254 19.4908 4.00006 20.1889 4.00006 20.9998C4.00006 22.1043 4.89549 22.9998 6.00006 22.9998C6.81087 22.9998 7.50899 22.5173 7.82297 21.8238C8.19511 21.9382 8.59039 21.9998 9.00006 21.9998C9.91448 21.9998 10.7572 21.6929 11.431 21.1766C12.7683 21.832 14.3275 22.1663 15.75 22.1663C20.6687 22.1663 25.6667 18.3626 25.6667 12.2348ZM2.23071 24.0538C2.23071 23.3486 2.79596 22.7825 3.50005 22.7825C4.20413 22.7825 4.76938 23.3486 4.76938 24.0538C4.76938 24.749 4.20413 25.3151 3.50005 25.325C2.80588 25.325 2.23071 24.749 2.23071 24.0538ZM14.5951 16.8825C14.5951 16.3225 15.0501 15.8675 15.6101 15.8675C16.1817 15.8675 16.6367 16.3225 16.6367 16.8825C16.6367 17.4425 16.1817 17.9092 15.6217 17.9092C15.0501 17.9092 14.5951 17.4425 14.5951 16.8825ZM14.5834 8.02634C14.5834 7.46751 15.0501 6.99967 15.6101 6.99967C16.1701 6.99967 16.6251 7.46751 16.6251 8.02634V13.183C16.6251 13.7442 16.1701 14.198 15.6101 14.198C15.0501 14.198 14.5834 13.7442 14.5834 13.183V8.02634Z" fill="#6049C4"/>
</svg>
