<svg width="24" height="24" viewBox="0 0 24 24" fill="none" xmlns="http://www.w3.org/2000/svg">
<path fill-rule="evenodd" clip-rule="evenodd" d="M23.6667 10.2353C23.6667 4.95167 19.4025 0.333496 13.7699 0.333496C8.00829 0.333496 3.83337 5.04106 3.83337 10.2651C3.83337 11.1987 3.98551 12.1478 4.26894 13.0777C3.48811 13.8077 3.00006 14.847 3.00006 16.0002C3.00006 16.4099 3.06165 16.8052 3.17606 17.1773C2.48254 17.4913 2.00006 18.1894 2.00006 19.0002C2.00006 20.1048 2.89549 21.0002 4.00006 21.0002C4.81087 21.0002 5.50899 20.5178 5.82297 19.8242C6.19511 19.9387 6.59039 20.0002 7.00006 20.0002C7.91448 20.0002 8.75724 19.6934 9.43098 19.1771C10.7683 19.8325 12.3275 20.1668 13.75 20.1668C18.6687 20.1668 23.6667 16.363 23.6667 10.2353ZM0.230713 22.0542C0.230713 21.3491 0.795962 20.783 1.50005 20.783C2.20413 20.783 2.76938 21.3491 2.76938 22.0542C2.76938 22.7495 2.20413 23.3155 1.50005 23.3255C0.805879 23.3255 0.230713 22.7495 0.230713 22.0542ZM12.5951 14.883C12.5951 14.323 13.0501 13.868 13.6101 13.868C14.1817 13.868 14.6367 14.323 14.6367 14.883C14.6367 15.443 14.1817 15.9097 13.6217 15.9097C13.0501 15.9097 12.5951 15.443 12.5951 14.883ZM12.5834 6.02683C12.5834 5.468 13.0501 5.00016 13.6101 5.00016C14.1701 5.00016 14.6251 5.468 14.6251 6.02683V11.1835C14.6251 11.7447 14.1701 12.1985 13.6101 12.1985C13.0501 12.1985 12.5834 11.7447 12.5834 11.1835V6.02683Z" fill="white"/>
</svg>
