<svg width="28" height="28" viewBox="0 0 28 28" fill="none" xmlns="http://www.w3.org/2000/svg">
<path d="M25.1021 17.4773C25.5979 17.4773 26 17.8847 26 18.387C26 18.4018 25.9478 19.0717 25.8947 19.7776L25.8632 20.2005C25.8325 20.6178 25.8051 21.0036 25.7923 21.2241C25.7239 22.3649 25.2869 23.5287 24.6231 24.3386C23.6987 25.4672 22.5211 25.9949 20.9197 25.9986C20.8922 25.9986 20.8615 25.9987 20.8277 25.9987L19.2544 25.9999C19.1748 25.9999 19.0933 26 19.0098 26H9.05875C8.97529 26 8.89372 25.9999 8.81416 25.9999L7.24133 25.9987L7.14943 25.9986C5.54683 25.9949 4.3692 25.4672 3.44485 24.3374C2.78221 23.5287 2.34405 22.3649 2.27682 21.2241C2.26362 21.0036 2.23601 20.6178 2.20506 20.2005L2.17342 19.7776C2.12019 19.0717 2.06795 18.4018 2.06795 18.387C2.06795 17.8847 2.47009 17.4773 2.96588 17.4773C3.43765 17.4773 3.81339 17.8494 3.8494 18.3164C3.8494 18.3164 4.03427 20.4434 4.07389 21.1147C4.1183 21.8577 4.41601 22.6665 4.83137 23.1724C5.41959 23.8911 6.07023 24.172 7.15183 24.1744C7.18802 24.1745 7.22974 24.1745 7.27674 24.1746L9.27804 24.1757C9.39206 24.1757 9.50918 24.1757 9.62914 24.1758H18.4381C18.5581 24.1757 18.6753 24.1757 18.7893 24.1757L20.7911 24.1746L20.9161 24.1744C21.9989 24.172 22.6496 23.8911 23.2366 23.1736C23.6531 22.6665 23.9508 21.8577 23.9953 21.1147C24.0337 20.4434 24.2185 18.3164 24.2185 18.3164C24.2546 17.8494 24.6303 17.4773 25.1021 17.4773ZM13.9986 17.3645C14.4955 17.3645 14.8989 17.7731 14.8989 18.2765V19.8502C14.8989 20.3537 14.4955 20.7623 13.9986 20.7623C13.5016 20.7623 13.0982 20.3537 13.0982 19.8502V18.2765C13.0982 17.7731 13.5016 17.3645 13.9986 17.3645ZM15.5482 2C17.3513 2 18.829 3.3742 19.0535 5.13878H21.4268C23.9465 5.13878 25.9969 7.2159 25.9969 9.76973V13.986C25.9969 14.2924 25.8456 14.577 25.5935 14.7473C23.1182 16.406 20.1807 17.5115 17.0968 17.9444C17.056 17.9505 17.014 17.9529 16.9731 17.9529C16.5662 17.9529 16.2037 17.6732 16.1004 17.2646C15.8579 16.2966 14.9912 15.6204 13.9924 15.6204C12.9829 15.6204 12.1245 16.282 11.8568 17.2695C11.7368 17.7121 11.3202 17.9967 10.8641 17.9323C7.80175 17.4993 4.87626 16.3987 2.40455 14.7473C2.15126 14.5782 2 14.2924 2 13.986V9.76973C2 7.2159 4.05516 5.13878 6.5821 5.13878H8.94337C9.16905 3.37299 10.6456 2 12.4487 2H15.5482ZM21.4268 6.96295H6.5821C5.04913 6.96295 3.80067 8.22284 3.80067 9.76973V13.4874C5.7718 14.7242 8.03703 15.59 10.4163 16.0145C11.0934 14.6755 12.4679 13.7963 13.9924 13.7963C15.5302 13.7963 16.8987 14.6792 17.5566 16.0254C19.9502 15.5985 22.2239 14.729 24.1962 13.4874V9.76973C24.1962 8.22284 22.9538 6.96295 21.4268 6.96295ZM15.5482 3.82417H12.4487C11.6408 3.82417 10.9661 4.38479 10.7644 5.13878H17.2312C17.0308 4.38479 16.3549 3.82417 15.5482 3.82417Z" fill="#6049C4"/>
</svg>
