<svg width="28" height="28" viewBox="0 0 28 28" fill="none" xmlns="http://www.w3.org/2000/svg">
<path d="M19.208 2C23.276 2 26 4.856 26 9.104V18.9092C26 23.144 23.276 26 19.208 26H8.804C4.736 26 2 23.144 2 18.9092V9.104C2 4.856 4.736 2 8.804 2H19.208ZM19.016 10.4C18.608 9.992 17.936 9.992 17.528 10.4L12.572 15.356L10.472 13.256C10.064 12.848 9.392 12.848 8.984 13.256C8.576 13.664 8.576 14.324 8.984 14.744L11.84 17.588C12.044 17.792 12.308 17.888 12.572 17.888C12.848 17.888 13.112 17.792 13.316 17.588L19.016 11.888C19.424 11.48 19.424 10.82 19.016 10.4Z" fill="#6049C4"/>
</svg>
