<svg width="24" height="24" viewBox="0 0 24 24" fill="none" xmlns="http://www.w3.org/2000/svg">
<path d="M23.4449 12.9513C23.529 12.9985 23.5458 13.0987 23.5491 13.1369L23.55 13.1521L23.4566 19.1774C23.4566 21.5809 21.5944 23.5408 19.2494 23.661L19.0211 23.6668H4.96736C2.59273 23.6668 0.656283 21.782 0.537574 19.4086L0.531807 19.1774L0.450099 13.1521C0.450099 13.1521 0.450099 13.0103 0.555152 12.9513C0.648532 12.8922 0.765257 12.9631 0.776929 12.9749C3.13477 14.558 5.97119 15.6095 8.94768 16.0466C9.36789 16.1057 9.7881 15.834 9.90483 15.4086C10.1456 14.5004 10.889 13.8829 11.7985 13.8093L11.9825 13.8019H12.0176C13.0097 13.8019 13.8385 14.4399 14.0953 15.4086C14.212 15.834 14.6322 16.1057 15.0524 16.0466C18.0289 15.6095 20.8653 14.558 23.2232 12.9749C23.2232 12.9749 23.2465 12.9631 23.2698 12.9513C23.3165 12.9276 23.3866 12.9158 23.4449 12.9513ZM11.9942 15.4913C11.5555 15.4913 11.1855 15.8289 11.1269 16.2582L11.1188 16.3774V17.9015C11.1188 18.3977 11.5156 18.7875 11.9942 18.7875C12.4436 18.7875 12.8047 18.4599 12.8618 18.0231L12.8696 17.9015V16.3774C12.8696 15.893 12.4844 15.4913 11.9942 15.4913ZM13.5 0.333496C15.2508 0.333496 16.6866 1.66851 16.9083 3.38158H19.2195C21.6707 3.38158 23.6667 5.40183 23.6667 7.88283C23.6667 7.88283 23.5967 8.93312 23.5733 10.3957C23.571 10.5115 23.515 10.6249 23.4228 10.6934C22.8613 11.1081 22.3477 11.4507 22.301 11.4744C20.3634 12.7739 18.1118 13.6884 15.7131 14.1432C15.5567 14.1739 15.4026 14.0924 15.3232 13.953C14.6509 12.7881 13.3949 12.0296 11.9942 12.0296C10.6028 12.0296 9.33521 12.7798 8.64303 13.9459C8.56249 14.083 8.41075 14.1621 8.2555 14.1326C5.87665 13.6766 3.62502 12.7633 1.69906 11.4862L0.578497 10.7064C0.485117 10.6474 0.426754 10.541 0.426754 10.4229C0.391737 9.82037 0.333374 7.88283 0.333374 7.88283C0.333374 5.40183 2.32937 3.38158 4.7806 3.38158H7.08008C7.30186 1.66851 8.73758 0.333496 10.4885 0.333496H13.5ZM13.5 2.10564H10.4885C9.7064 2.10564 9.04106 2.6491 8.8543 3.38158H15.1341C14.9473 2.6491 14.282 2.10564 13.5 2.10564Z" fill="white"/>
</svg>
