<svg width="24" height="24" viewBox="0 0 24 24" fill="none" xmlns="http://www.w3.org/2000/svg">
<path d="M17.0635 0.333008C21.0185 0.333008 23.6668 3.10967 23.6668 7.23967V16.7725C23.6668 20.8897 21.0185 23.6663 17.0635 23.6663H6.9485C2.9935 23.6663 0.333496 20.8897 0.333496 16.7725V7.23967C0.333496 3.10967 2.9935 0.333008 6.9485 0.333008H17.0635ZM16.8768 8.49967C16.4802 8.10301 15.8268 8.10301 15.4302 8.49967L10.6118 13.318L8.57016 11.2763C8.1735 10.8797 7.52016 10.8797 7.1235 11.2763C6.72683 11.673 6.72683 12.3147 7.1235 12.723L9.90016 15.488C10.0985 15.6863 10.3552 15.7797 10.6118 15.7797C10.8802 15.7797 11.1368 15.6863 11.3352 15.488L16.8768 9.94634C17.2735 9.54967 17.2735 8.90801 16.8768 8.49967Z" fill="white"/>
</svg>
