<svg width="28" height="28" viewBox="0 0 28 28" fill="none" xmlns="http://www.w3.org/2000/svg">
<path d="M14 2C20.636 2 26 7.376 26 14C26 20.636 20.636 26 14 26C7.376 26 2 20.636 2 14C2 7.376 7.376 2 14 2ZM13.58 7.916C13.088 7.916 12.68 8.312 12.68 8.816V14.876C12.68 15.188 12.848 15.476 13.124 15.644L17.828 18.452C17.972 18.536 18.128 18.584 18.296 18.584C18.596 18.584 18.896 18.428 19.064 18.14C19.316 17.72 19.184 17.168 18.752 16.904L14.48 14.36V8.816C14.48 8.312 14.072 7.916 13.58 7.916Z" fill="#6049C4"/>
</svg>
