<svg width="28" height="28" viewBox="0 0 28 28" fill="none" xmlns="http://www.w3.org/2000/svg">
<path d="M19.2008 2C23.2853 2 26 4.91541 26 9.0992V18.9008C26 23.0848 23.2851 26 19.1996 26H8.798C4.71364 26 2 23.0848 2 18.9008V9.0992C2 4.91912 4.72091 2 8.798 2H19.2008ZM19.2008 3.8H8.798C5.74441 3.8 3.8 5.88605 3.8 9.0992V18.9008C3.8 22.1184 5.73771 24.2 8.798 24.2H19.1996C22.2613 24.2 24.2 22.1182 24.2 18.9008V9.0992C24.2 5.88196 22.2614 3.8 19.2008 3.8ZM13.9872 12.3523C14.4428 12.3523 14.8193 12.6909 14.8789 13.1302L14.8872 13.2523V18.5551C14.8872 19.0521 14.4842 19.4551 13.9872 19.4551C13.5315 19.4551 13.155 19.1165 13.0954 18.6772L13.0872 18.5551V13.2523C13.0872 12.7552 13.4901 12.3523 13.9872 12.3523ZM13.9992 8.54492C14.4962 8.54492 14.8992 8.94786 14.8992 9.44492C14.8992 9.90056 14.5606 10.2771 14.1213 10.3367L13.9872 10.3449C13.4901 10.3449 13.0872 9.94198 13.0872 9.44492C13.0872 8.98929 13.4257 8.61273 13.865 8.55314L13.9992 8.54492Z" fill="#6049C4"/>
</svg>
