<svg width="28" height="28" viewBox="0 0 28 28" fill="none" xmlns="http://www.w3.org/2000/svg">
<path d="M18.4607 2C18.9796 1.99881 19.3899 2.39461 19.3911 2.92234L19.3923 3.82189C22.7591 4.08096 24.9831 6.33343 24.9867 9.7877L25 19.8986C25.0048 23.6647 22.595 25.982 18.7322 25.988L9.29675 26C5.45813 26.0048 3.01812 23.6324 3.01329 19.8555L3.00001 9.86326C2.99519 6.38621 5.14076 4.13973 8.50755 3.83629L8.50634 2.93674C8.50514 2.409 8.90336 2.012 9.43432 2.012C9.96529 2.0108 10.3635 2.4066 10.3647 2.93434L10.3659 3.77392L17.5339 3.76432L17.5327 2.92474C17.5315 2.39701 17.9297 2.0012 18.4607 2ZM18.953 19.0303H18.941C18.3859 19.0435 17.9406 19.5004 17.9527 20.0522C17.9539 20.6039 18.4016 21.0585 18.9567 21.0704C19.5226 21.0692 19.9812 20.6123 19.98 20.0486C19.98 19.4848 19.5202 19.0303 18.953 19.0303ZM9.00955 19.0315C8.45445 19.0555 8.02003 19.5124 8.02123 20.0642C8.04658 20.6159 8.50514 21.0477 9.06024 21.0225C9.60447 20.9985 10.0377 20.5415 10.0123 19.9898C10.0003 19.4501 9.55258 19.0303 9.00955 19.0315ZM13.9813 19.0255C13.4262 19.0507 12.993 19.5064 12.993 20.0582C13.0183 20.6099 13.4769 21.0405 14.032 21.0165C14.575 20.9913 15.0094 20.5355 14.9841 19.9826C14.972 19.4441 14.5243 19.0243 13.9813 19.0255ZM9.00352 14.7136C8.44842 14.7376 8.0152 15.1946 8.01641 15.7463C8.04054 16.298 8.50031 16.7298 9.05541 16.7046C9.59844 16.6806 10.0317 16.2237 10.0063 15.672C9.99425 15.1322 9.54776 14.7124 9.00352 14.7136ZM13.9765 14.6717C13.4214 14.6956 12.9869 15.1526 12.9882 15.7043C13.0123 16.2561 13.4721 16.6866 14.0272 16.6627C14.5702 16.6375 15.0034 16.1817 14.9793 15.63C14.966 15.0902 14.5195 14.6705 13.9765 14.6717ZM18.9482 14.6776C18.3931 14.6896 17.9587 15.1334 17.9599 15.6851V15.6983C17.972 16.2501 18.4305 16.6687 18.9868 16.6567C19.5299 16.6435 19.9631 16.1865 19.951 15.6348C19.9257 15.107 19.49 14.6765 18.9482 14.6776ZM17.5363 5.6114L10.3683 5.62099L10.3695 6.5913C10.3695 7.10824 9.97253 7.51604 9.44156 7.51604C8.9106 7.51724 8.51117 7.11064 8.51117 6.5937L8.50996 5.67017C6.15683 5.90165 4.85477 7.25937 4.85838 9.86087L4.85959 10.2339L23.1295 10.2099V9.7901C23.0777 7.21139 21.7599 5.85847 19.3947 5.65697L19.3959 6.58051C19.3959 7.09625 18.9868 7.50525 18.4679 7.50525C17.937 7.50645 17.5375 7.09865 17.5375 6.58291L17.5363 5.6114Z" fill="#6049C4"/>
</svg>
