<svg width="12" height="14" viewBox="0 0 12 14" fill="none" xmlns="http://www.w3.org/2000/svg">
<path d="M6.38911 0.684082C6.83692 0.683902 7.26572 0.861312 7.57786 1.1759C7.88999 1.49049 8.05886 1.91546 8.04527 2.31208L8.05063 2.40536C8.06153 2.49722 8.09206 2.58587 8.14155 2.66758C8.23799 2.82872 8.39589 2.94565 8.58043 2.99259C8.76496 3.03953 8.96098 3.01264 9.14662 2.90622L9.25008 2.85387C10.0269 2.49607 10.9586 2.78041 11.3895 3.5131L11.7767 4.1715C11.7869 4.18885 11.7959 4.20679 11.8037 4.22518L11.8396 4.29572C12.186 5.01999 11.9396 5.88151 11.2815 6.31921L11.119 6.41925C11.0341 6.47728 10.9632 6.55308 10.91 6.64416C10.8138 6.80592 10.7874 6.99858 10.8366 7.17947C10.8859 7.36037 11.0067 7.51457 11.1899 7.61837L11.2954 7.68456C11.6139 7.90285 11.844 8.22458 11.9444 8.59334C12.0576 9.00939 11.9969 9.4525 11.7726 9.82962L11.356 10.5096L11.2932 10.6055C10.8037 11.2951 9.8533 11.5058 9.12803 11.0956L9.04207 11.0522C8.9524 11.013 8.85565 10.9914 8.76757 10.989C8.57597 10.988 8.39194 11.0622 8.25646 11.195C8.12097 11.3277 8.04527 11.508 8.04576 11.7176L8.04064 11.826C7.9705 12.6653 7.25336 13.3157 6.38931 13.3157H5.60909C4.69402 13.3157 3.9522 12.5889 3.95313 11.7211L3.94777 11.6279C3.93687 11.536 3.90634 11.4474 3.85434 11.3614C3.76001 11.1999 3.60374 11.0819 3.42024 11.0338C3.23674 10.9857 3.04123 11.0114 2.85199 11.1186L2.73955 11.1736C2.38396 11.3303 1.98286 11.3592 1.60702 11.2546C1.18299 11.1365 0.824459 10.8577 0.615237 10.4877L0.21271 9.80673L0.159136 9.70583C-0.207428 8.94775 0.0799035 8.03644 0.809147 7.62353L0.875654 7.58272C1.07047 7.45061 1.18728 7.23281 1.18728 6.99987C1.18728 6.74658 1.04936 6.51253 0.808094 6.37556L0.710202 6.31403C0.00632045 5.83446 -0.208742 4.90334 0.227302 4.16216L0.637376 3.50197C1.09344 2.72646 2.10414 2.45892 2.88148 2.89569L2.96563 2.93964C3.05142 2.97822 3.1446 2.99869 3.23432 2.99963C3.62995 2.99967 3.95227 2.68841 3.95826 2.28943L3.96363 2.16691C3.99603 1.78755 4.16404 1.43105 4.43871 1.16065C4.7486 0.855587 5.16979 0.684082 5.60909 0.684082H6.38911ZM6.38931 1.59844H5.60909C5.41808 1.59844 5.23495 1.67301 5.10021 1.80565C4.98079 1.92322 4.90773 2.07823 4.89492 2.22299L4.88643 2.41556C4.82109 3.25516 4.10507 3.91408 3.22943 3.91396C3.00371 3.91167 2.78119 3.86277 2.55427 3.76003L2.43278 3.69725C2.08661 3.50292 1.6452 3.61976 1.44036 3.96782L1.03028 4.62801C0.84238 4.94752 0.936356 5.35439 1.22731 5.55308L1.39197 5.65524C1.84545 5.95566 2.12055 6.45857 2.12055 6.99987C2.12055 7.53327 1.85313 8.0319 1.39086 8.3449L1.29246 8.40551C0.96855 8.5891 0.843552 8.98555 0.994096 9.29777L1.02965 9.36507L1.42707 10.0368C1.52039 10.2017 1.67697 10.3235 1.86216 10.3751C2.0263 10.4208 2.20149 10.4081 2.33816 10.3484L2.40682 10.3155C2.78587 10.0988 3.23756 10.0394 3.6615 10.1505C4.08544 10.2617 4.44649 10.5341 4.66066 10.901C4.77586 11.0912 4.84877 11.3029 4.87699 11.5463L4.88972 11.7696C4.929 12.1248 5.23609 12.4013 5.60909 12.4013H6.38931C6.76656 12.4013 7.07992 12.1171 7.10936 11.769L7.11293 11.7001C7.11081 11.2684 7.28493 10.8537 7.59654 10.5484C7.90815 10.2431 8.33139 10.0725 8.7823 10.0748C9.00354 10.0806 9.22128 10.1291 9.44386 10.2273L9.64342 10.3271C9.95664 10.4618 10.3282 10.3635 10.5165 10.0988L10.5623 10.0287L10.9692 9.36425C11.0654 9.20249 11.0918 9.00983 11.0426 8.82894C10.999 8.66861 10.8989 8.52871 10.7776 8.44503L10.6056 8.33852C10.2768 8.12078 10.0378 7.79329 9.93487 7.41507C9.82164 6.99902 9.88236 6.55591 10.1019 6.18679C10.222 5.98123 10.3872 5.8045 10.6025 5.65797L10.704 5.59533C11.0274 5.41 11.1523 5.01358 11.0029 4.70019L10.9582 4.61585L10.9502 4.59814L10.5809 3.96961C10.4062 3.67256 10.0426 3.54421 9.73419 3.64562L9.66409 3.67313L9.59895 3.70565C9.22113 3.92371 8.77031 3.98557 8.34588 3.87761C7.92146 3.76964 7.5583 3.5007 7.33774 3.13218C7.22253 2.942 7.14963 2.7303 7.12141 2.48695L7.11312 2.32776C7.11873 2.13623 7.04498 1.95063 6.90866 1.81324C6.77234 1.67585 6.58507 1.59844 6.38931 1.59844ZM6.00205 4.93576C7.1656 4.93576 8.10884 5.85989 8.10884 6.99987C8.10884 8.13985 7.1656 9.06399 6.00205 9.06399C4.8385 9.06399 3.89525 8.13985 3.89525 6.99987C3.89525 5.85989 4.8385 4.93576 6.00205 4.93576ZM6.00205 5.85012C5.35393 5.85012 4.82852 6.36488 4.82852 6.99987C4.82852 7.63486 5.35393 8.14962 6.00205 8.14962C6.65017 8.14962 7.17557 7.63486 7.17557 6.99987C7.17557 6.36488 6.65017 5.85012 6.00205 5.85012Z" fill="#39297F"/>
</svg>
