<svg width="28" height="28" viewBox="0 0 28 28" fill="none" xmlns="http://www.w3.org/2000/svg">
<path d="M17.5621 2C17.9905 2 18.3445 2.31496 18.4005 2.72361L18.4082 2.83721L18.4083 3.78352C21.8832 4.01745 24.011 6.22266 24 9.78295V19.9693C24 23.7431 21.6109 26 17.7711 26H8.22876C4.39353 26 2 23.7047 2 19.8849V9.78295C2 6.22394 4.13463 4.01812 7.60198 3.78362L7.60209 2.83721C7.60209 2.37483 7.98092 2 8.44824 2C8.87661 2 9.23064 2.31496 9.28667 2.72361L9.29439 2.83721L9.29422 3.7628H16.7156L16.7159 2.83721C16.7159 2.37483 17.0948 2 17.5621 2ZM22.3072 11.9396H3.69156L3.6923 19.8849C3.6923 22.675 5.21342 24.2237 7.95096 24.3207L8.22876 24.3256H17.7711C20.6934 24.3256 22.3077 22.8006 22.3077 19.9693L22.3072 11.9396ZM18.022 18.9632C18.4893 18.9632 18.8681 19.3381 18.8681 19.8004C18.8681 20.2243 18.5498 20.5746 18.1368 20.63L18.022 20.6376C17.5442 20.6376 17.1654 20.2628 17.1654 19.8004C17.1654 19.3766 17.4837 19.0263 17.8967 18.9709L18.022 18.9632ZM13.0156 18.9632C13.4829 18.9632 13.8618 19.3381 13.8618 19.8004C13.8618 20.2243 13.5434 20.5746 13.1304 20.63L13.0156 20.6376C12.5378 20.6376 12.159 20.2628 12.159 19.8004C12.159 19.3766 12.4773 19.0263 12.8903 18.9709L13.0156 18.9632ZM7.99882 18.9632C8.46613 18.9632 8.84497 19.3381 8.84497 19.8004C8.84497 20.2243 8.52664 20.5746 8.11364 20.63L7.98837 20.6376C7.52105 20.6376 7.14222 20.2628 7.14222 19.8004C7.14222 19.3766 7.46054 19.0263 7.87355 18.9709L7.99882 18.9632ZM18.022 14.6248C18.4893 14.6248 18.8681 14.9996 18.8681 15.462C18.8681 15.8858 18.5498 16.2361 18.1368 16.2915L18.022 16.2992C17.5442 16.2992 17.1654 15.9244 17.1654 15.462C17.1654 15.0381 17.4837 14.6879 17.8967 14.6324L18.022 14.6248ZM13.0156 14.6248C13.4829 14.6248 13.8618 14.9996 13.8618 15.462C13.8618 15.8858 13.5434 16.2361 13.1304 16.2915L13.0156 16.2992C12.5378 16.2992 12.159 15.9244 12.159 15.462C12.159 15.0381 12.4773 14.6879 12.8903 14.6324L13.0156 14.6248ZM7.99882 14.6248C8.46613 14.6248 8.84497 14.9996 8.84497 15.462C8.84497 15.8858 8.52664 16.2361 8.11364 16.2915L7.98837 16.2992C7.52105 16.2992 7.14222 15.9244 7.14222 15.462C7.14222 15.0381 7.46054 14.6879 7.87355 14.6324L7.99882 14.6248ZM16.7156 5.4368H9.29422L9.29439 6.51064C9.29439 6.97302 8.91556 7.34785 8.44824 7.34785C8.01987 7.34785 7.66584 7.03289 7.60981 6.62424L7.60209 6.51064L7.60089 5.46225C5.07865 5.67005 3.6923 7.16793 3.6923 9.78295L3.69156 10.2644H22.3072L22.3077 9.78038C22.3157 7.1633 20.9365 5.66853 18.4083 5.46199L18.4082 6.51064C18.4082 6.97302 18.0294 7.34785 17.5621 7.34785C17.1337 7.34785 16.7797 7.03289 16.7237 6.62424L16.7159 6.51064L16.7156 5.4368Z" fill="#6049C4"/>
</svg>
