<svg width="28" height="28" viewBox="0 0 28 28" fill="none" xmlns="http://www.w3.org/2000/svg">
<path d="M12.4907 4.3884C13.9864 3.55892 15.8891 4.10392 16.725 5.5863L24.7206 19.4629C24.8966 19.8771 24.9736 20.2139 24.9956 20.5638C25.0396 21.3813 24.7536 22.1759 24.1927 22.7874C23.6318 23.3967 22.8729 23.7564 22.0481 23.8H5.94679C5.60585 23.7793 5.26491 23.7019 4.94596 23.582C3.35123 22.9389 2.58136 21.1295 3.23025 19.561L11.2809 5.57649C11.5558 5.08491 11.9738 4.6609 12.4907 4.3884ZM13.9974 17.4999C13.4695 17.4999 13.0296 17.9359 13.0296 18.4601C13.0296 18.9823 13.4695 19.4193 13.9974 19.4193C14.5253 19.4193 14.9543 18.9823 14.9543 18.4482C14.9543 17.9261 14.5253 17.4999 13.9974 17.4999ZM13.9974 10.6994C13.4695 10.6994 13.0296 11.1234 13.0296 11.6477V14.7313C13.0296 15.2545 13.4695 15.6916 13.9974 15.6916C14.5253 15.6916 14.9543 15.2545 14.9543 14.7313V11.6477C14.9543 11.1234 14.5253 10.6994 13.9974 10.6994Z" fill="#6049C4"/>
</svg>
