<svg width="28" height="28" viewBox="0 0 28 28" fill="none" xmlns="http://www.w3.org/2000/svg">
<path d="M14 2C20.6279 2 26 7.37214 26 14C26 20.6279 20.6279 26 14 26C7.37214 26 2 20.6279 2 14C2 7.37214 7.37214 2 14 2ZM14 3.8C8.36626 3.8 3.8 8.36626 3.8 14C3.8 19.6337 8.36626 24.2 14 24.2C19.6337 24.2 24.2 19.6337 24.2 14C24.2 8.36626 19.6337 3.8 14 3.8ZM13.5939 8.11568C14.0496 8.11568 14.4261 8.45426 14.4857 8.89356L14.4939 9.01568L14.4934 14.3198L18.579 16.758C18.9703 16.9914 19.1202 17.4751 18.9463 17.8829L18.8908 17.992C18.6574 18.3833 18.1737 18.5332 17.7659 18.3593L17.6568 18.3038L13.1328 15.605C12.8995 15.4658 12.7437 15.2302 12.7039 14.9662L12.6939 14.8321V9.01568C12.6939 8.51862 13.0969 8.11568 13.5939 8.11568Z" fill="#6049C4"/>
</svg>
