<svg width="28" height="28" viewBox="0 0 28 28" fill="none" xmlns="http://www.w3.org/2000/svg">
<path d="M11.391 17.1317C13.1269 16.9744 14.8728 16.9744 16.6087 17.1317L17.163 17.1799C17.9211 17.2567 18.6738 17.3769 19.4146 17.5394C21.3027 17.939 22.6737 18.6479 23.2806 19.9628C23.7315 20.9411 23.7315 22.0769 23.2804 23.0556C22.672 24.3739 21.2833 25.0887 19.4287 25.4646L18.8668 25.5844C18.1157 25.7325 17.3584 25.8336 16.6061 25.8865C15.1944 26.01 13.7762 26.0325 12.4081 25.9552C12.2573 25.9552 12.1561 25.9546 12.0669 25.9525L11.8934 25.9458C11.6826 25.9348 11.4894 25.912 11.4083 25.8876C10.4565 25.8212 9.51102 25.6796 8.60403 25.4694L8.29637 25.4034C6.57889 25.0114 5.30698 24.304 4.71864 23.0542C4.49582 22.5692 4.38057 22.0391 4.38124 21.5069C4.37931 20.9709 4.4955 20.4414 4.7266 19.9469C5.33933 18.6825 6.77893 17.9217 8.57838 17.5409C9.51069 17.3356 10.4559 17.1984 11.391 17.1317ZM16.4571 18.9132C14.8221 18.765 13.1776 18.765 11.5267 18.9145C10.657 18.9766 9.79267 19.102 8.93338 19.2912C7.60255 19.5729 6.58505 20.1107 6.28237 20.735C6.17091 20.9736 6.11349 21.2353 6.11444 21.5047C6.11412 21.7757 6.1723 22.0433 6.28123 22.2805C6.59253 22.9418 7.55267 23.436 8.95947 23.7193L9.38332 23.8115C10.0932 23.9561 10.8243 24.0558 11.6368 24.1188C11.7394 24.1399 11.8501 24.1529 11.9815 24.1598L12.4547 24.1682C13.7895 24.2423 15.1277 24.2211 16.4739 24.1035C17.3415 24.0424 18.2034 23.9138 19.0733 23.7144L19.3438 23.6556C20.5792 23.3678 21.434 22.8968 21.7154 22.2872C21.9423 21.7948 21.9423 21.2232 21.7156 20.7312C21.4145 20.0788 20.4627 19.5868 19.0603 19.2899C18.2071 19.1028 17.3424 18.9773 16.4723 18.9144L16.4571 18.9132ZM14.0051 2C17.5328 2 22.5102 3.08258 22.5102 7.88476C22.5102 12.6869 17.5328 14.4752 14.0051 14.4752C10.4774 14.4752 5.50002 12.6869 5.50002 7.88476C5.50002 3.08258 10.4774 2 14.0051 2ZM14.0051 4.11763C11.4346 4.11763 7.23323 4.11763 7.23323 7.88476C7.23323 11.6519 11.4346 12.6869 14.0051 12.6869C16.5756 12.6869 20.777 11.6519 20.777 7.88476C20.777 4.11763 16.5756 4.11763 14.0051 4.11763Z" fill="#6049C4"/>
<path d="M7.30151 10.4701H10.9007C11.1408 9.41127 11.4768 6.65835 10.9007 4.11719" stroke="#6049C4" stroke-width="2"/>
<path d="M17.0426 4.11719C16.8026 5.176 16.4667 7.92892 17.0426 10.4701H20.6418" stroke="#6049C4" stroke-width="2"/>
</svg>
