<svg width="48" height="48" viewBox="0 0 48 48" fill="none" xmlns="http://www.w3.org/2000/svg">
<circle cx="24" cy="24" r="24" fill="#6149C5"/>
<path d="M24 12C25.0316 12 25.8842 12.7672 26.0191 13.7626L26.0377 14.0393L26.0358 21.9593L33.9623 21.9607C35.0877 21.9607 36 22.8737 36 24C36 25.0324 35.2334 25.8857 34.2388 26.0207L33.9623 26.0393L26.0358 26.0369L26.0377 33.9607C26.0377 35.087 25.1254 36 24 36C22.9684 36 22.1158 35.2328 21.9809 34.2374L21.9623 33.9607L21.9613 26.0369L14.0377 26.0393C12.9123 26.0393 12 25.1263 12 24C12 22.9676 12.7666 22.1143 13.7612 21.9793L14.0377 21.9607L21.9613 21.9593L21.9623 14.0393C21.9623 12.913 22.8746 12 24 12Z" fill="#EDF2FF"/>
</svg>
