<svg width="14" height="14" viewBox="0 0 14 14" fill="none" xmlns="http://www.w3.org/2000/svg">
<path d="M13.7268 7.55923C13.7762 7.587 13.786 7.64589 13.788 7.66833L13.7885 7.67727L13.7336 11.2187C13.7336 12.6313 12.6391 13.7833 11.2608 13.8539L11.1266 13.8574H2.86647C1.47077 13.8574 0.332614 12.7495 0.262842 11.3545L0.259452 11.2187L0.211428 7.67727C0.211428 7.67727 0.211428 7.59395 0.273173 7.55923C0.328058 7.52451 0.396663 7.56617 0.403524 7.57312C1.78936 8.5036 3.45648 9.12161 5.20592 9.37853C5.45291 9.41325 5.69989 9.25354 5.76849 9.00356C5.90999 8.46975 6.34695 8.10682 6.88152 8.06354L6.98967 8.05919H7.01026C7.5934 8.05919 8.0805 8.43416 8.23144 9.00356C8.30004 9.25354 8.54702 9.41325 8.794 9.37853C10.5435 9.12161 12.2106 8.5036 13.5964 7.57312C13.5964 7.57312 13.6101 7.56617 13.6238 7.55923C13.6513 7.54534 13.6925 7.5384 13.7268 7.55923ZM6.99653 9.05217C6.73869 9.05217 6.5212 9.25055 6.48674 9.50291L6.48199 9.57296V10.4687C6.48199 10.7604 6.71525 10.9895 6.99653 10.9895C7.26067 10.9895 7.47292 10.797 7.50646 10.5402L7.51108 10.4687V9.57296C7.51108 9.28826 7.28468 9.05217 6.99653 9.05217ZM7.88155 0.143066C8.91063 0.143066 9.75449 0.927728 9.88484 1.93459H11.2432C12.6839 1.93459 13.8571 3.122 13.8571 4.58022C13.8571 4.58022 13.8159 5.19754 13.8022 6.05719C13.8009 6.12524 13.7679 6.1919 13.7137 6.23218C13.3837 6.47591 13.0819 6.67728 13.0544 6.69117C11.9156 7.455 10.5922 7.99246 9.18231 8.2598C9.09038 8.27785 8.99982 8.22994 8.95317 8.148C8.558 7.46333 7.8198 7.01753 6.99653 7.01753C6.17875 7.01753 5.4337 7.45847 5.02686 8.14384C4.97953 8.22439 4.89034 8.27091 4.79909 8.25355C3.40091 7.98551 2.0775 7.44875 0.945509 6.69811L0.286894 6.23982C0.23201 6.2051 0.197707 6.1426 0.197707 6.07316C0.177125 5.71902 0.142822 4.58022 0.142822 4.58022C0.142822 3.122 1.31598 1.93459 2.7567 1.93459H4.10823C4.23858 0.927728 5.08243 0.143066 6.11152 0.143066H7.88155ZM7.88155 1.18465H6.11152C5.65186 1.18465 5.26081 1.50407 5.15104 1.93459H8.84203C8.73226 1.50407 8.34121 1.18465 7.88155 1.18465Z" fill="#6049C4"/>
</svg>
