<svg width="28" height="28" viewBox="0 0 28 28" fill="none" xmlns="http://www.w3.org/2000/svg">
<path d="M19.2008 2C23.2853 2 26 4.91541 26 9.0992V18.9008C26 23.0848 23.2851 26 19.1996 26H8.798C4.71364 26 2 23.0848 2 18.9008V9.0992C2 4.91912 4.72091 2 8.798 2H19.2008ZM19.2008 3.8H8.798C5.74441 3.8 3.8 5.88605 3.8 9.0992V18.9008C3.8 22.1184 5.73771 24.2 8.798 24.2H19.1996C22.2613 24.2 24.2 22.1182 24.2 18.9008V9.0992C24.2 5.88196 22.2614 3.8 19.2008 3.8ZM18.9078 10.516C19.2273 10.8355 19.2564 11.3355 18.9949 11.6879L18.9078 11.7888L13.2126 17.484C12.8931 17.8035 12.3932 17.8326 12.0409 17.5712L11.9399 17.4841L9.09114 14.6365C8.73959 14.2851 8.73947 13.7153 9.09087 13.3637C9.41032 13.0442 9.91031 13.015 10.2627 13.2763L10.3637 13.3635L12.5751 15.5742L17.635 10.516C17.9865 10.1645 18.5563 10.1645 18.9078 10.516Z" fill="#6049C4"/>
</svg>
