<svg width="22" height="24" viewBox="0 0 22 24" fill="none" xmlns="http://www.w3.org/2000/svg">
<path d="M15.2579 0.333499C15.7532 0.332335 16.1449 0.717143 16.146 1.23022L16.1472 2.10478C19.3609 2.35665 21.4839 4.54656 21.4873 7.90488L21.5 17.735C21.5046 21.3965 19.2043 23.6493 15.5171 23.6552L6.51054 23.6668C2.8464 23.6715 0.517294 21.365 0.512686 17.693L0.500008 7.97834C0.495408 4.59787 2.54346 2.41379 5.75721 2.11877L5.75606 1.24421C5.7549 0.731135 6.13503 0.345162 6.64185 0.345162C7.14868 0.343996 7.5288 0.728803 7.52995 1.24188L7.53111 2.05814L14.3733 2.04881L14.3721 1.23255C14.371 0.719475 14.7511 0.334667 15.2579 0.333499ZM15.7279 16.8907H15.7164C15.1865 16.9035 14.7615 17.3478 14.773 17.8842C14.7741 18.4206 15.2015 18.8626 15.7314 18.8742C16.2716 18.873 16.7093 18.4288 16.7082 17.8807C16.7082 17.3327 16.2693 16.8907 15.7279 16.8907ZM6.23639 16.8919C5.70652 16.9152 5.29185 17.3595 5.293 17.8959C5.31719 18.4323 5.7549 18.8521 6.28477 18.8276C6.80427 18.8042 7.21779 18.36 7.1936 17.8236C7.18209 17.2988 6.75474 16.8907 6.23639 16.8919ZM10.9821 16.886C10.4523 16.9105 10.0388 17.3536 10.0388 17.89C10.0629 18.4264 10.5007 18.8451 11.0305 18.8217C11.5489 18.7973 11.9635 18.3541 11.9394 17.8166C11.9278 17.293 11.5005 16.8849 10.9821 16.886ZM6.23063 12.694C5.70077 12.7173 5.28724 13.1616 5.28839 13.698C5.31143 14.2344 5.7503 14.6542 6.28016 14.6297C6.79851 14.6064 7.21203 14.1621 7.18785 13.6257C7.17633 13.1009 6.75013 12.6928 6.23063 12.694ZM10.9775 12.6532C10.4477 12.6765 10.033 13.1208 10.0341 13.6572C10.0572 14.1936 10.4961 14.6122 11.0259 14.5889C11.5443 14.5644 11.9578 14.1213 11.9348 13.5849C11.9221 13.0601 11.4959 12.652 10.9775 12.6532ZM15.7233 12.659C15.1934 12.6707 14.7788 13.1021 14.7799 13.6385V13.6513C14.7914 14.1877 15.2291 14.5947 15.7602 14.583C16.2785 14.5702 16.692 14.1259 16.6805 13.5895C16.6563 13.0765 16.2405 12.6578 15.7233 12.659ZM14.3756 3.84458L7.53341 3.8539L7.53456 4.79727C7.53456 5.29985 7.15559 5.69632 6.64876 5.69632C6.14194 5.69748 5.76066 5.30218 5.76066 4.7996L5.75951 3.90171C3.51334 4.12677 2.27046 5.44677 2.27391 7.97601L2.27507 8.33866L19.7146 8.31534V7.90721C19.665 5.40013 18.4072 4.08479 16.1495 3.88889L16.1506 4.78677C16.1506 5.28819 15.7602 5.68582 15.2648 5.68582C14.758 5.68699 14.3767 5.29052 14.3767 4.7891L14.3756 3.84458Z" fill="white"/>
</svg>
