<svg width="28" height="28" viewBox="0 0 28 28" fill="none" xmlns="http://www.w3.org/2000/svg">
<path d="M25.7719 14.9783C25.8583 15.0269 25.8756 15.1299 25.8791 15.1692L25.8799 15.1849L25.7839 21.3823C25.7839 23.8544 23.8684 25.8704 21.4565 25.994L21.2216 26H6.76638C4.32391 26 2.33213 24.0613 2.21003 21.6201L2.2041 21.3823L2.12006 15.1849C2.12006 15.1849 2.12006 15.039 2.22811 14.9783C2.32416 14.9175 2.44422 14.9904 2.45623 15.0026C4.88144 16.6309 7.7989 17.7124 10.8604 18.1621C11.2926 18.2228 11.7249 17.9433 11.8449 17.5059C12.0925 16.5717 12.8572 15.9366 13.7927 15.8608L13.982 15.8532H14.018C15.0385 15.8532 15.8909 16.5094 16.1551 17.5059C16.2751 17.9433 16.7074 18.2228 17.1396 18.1621C20.2011 17.7124 23.1186 16.6309 25.5438 15.0026C25.5438 15.0026 25.5678 14.9904 25.5918 14.9783C25.6398 14.954 25.7119 14.9418 25.7719 14.9783ZM13.994 17.5909C13.5428 17.5909 13.1622 17.9381 13.1019 18.3797L13.0935 18.5023V20.0699C13.0935 20.5803 13.5018 20.9813 13.994 20.9813C14.4562 20.9813 14.8277 20.6443 14.8864 20.1951L14.8944 20.0699V18.5023C14.8944 18.0041 14.4982 17.5909 13.994 17.5909ZM15.5428 2C17.3437 2 18.8204 3.37316 19.0485 5.13517H21.4257C23.947 5.13517 26 7.21314 26 9.76502C26 9.76502 25.928 10.8453 25.904 12.3497C25.9016 12.4688 25.8439 12.5855 25.7491 12.6559C25.1716 13.0825 24.6433 13.4349 24.5953 13.4592C22.6023 14.7959 20.2863 15.7364 17.8191 16.2043C17.6582 16.2359 17.4998 16.152 17.4181 16.0086C16.7266 14.8105 15.4347 14.0303 13.994 14.0303C12.5629 14.0303 11.259 14.802 10.5471 16.0013C10.4642 16.1423 10.3082 16.2237 10.1485 16.1933C7.70165 15.7243 5.38569 14.7849 3.4047 13.4713L2.25213 12.6693C2.15608 12.6086 2.09605 12.4992 2.09605 12.3777C2.06003 11.7579 2 9.76502 2 9.76502C2 7.21314 4.05303 5.13517 6.57429 5.13517H8.93947C9.16758 3.37316 10.6443 2 12.4452 2H15.5428ZM15.5428 3.82278H12.4452C11.6408 3.82278 10.9565 4.38176 10.7644 5.13517H17.2236C17.0315 4.38176 16.3472 3.82278 15.5428 3.82278Z" fill="#6049C4"/>
</svg>
