<svg width="224" height="298" viewBox="0 0 224 298" fill="none" xmlns="http://www.w3.org/2000/svg">
<path d="M161.507 150.509C164.05 140.718 163.796 135.124 160.49 132.835C159.218 131.945 157.947 131.818 156.548 131.818C155.15 131.818 153.497 131.818 151.081 130.8C149.555 130.292 148.538 129.656 147.648 129.02C146.249 128.13 144.978 127.495 143.198 127.749C140.782 128.13 138.875 130.292 137.222 134.106L139.765 135.124C140.909 132.199 142.308 130.546 143.706 130.419C144.469 130.292 144.978 130.546 146.249 131.309C147.266 131.818 148.411 132.581 150.191 133.216C153.115 134.233 155.15 134.361 156.548 134.361C157.82 134.361 158.456 134.361 158.964 134.869C160.109 135.759 161.761 138.811 158.964 149.746L161.507 150.509Z" fill="#263959"/>
<path d="M60.2965 140.972C60.678 137.031 61.568 134.488 63.0938 133.852C64.111 133.343 65.2554 133.725 66.654 134.106C68.4341 134.615 70.3413 135.123 72.2486 133.852C73.6472 132.962 73.9015 131.69 74.1558 130.8C74.4101 130.037 74.5372 129.274 75.173 128.512C76.3173 127.113 78.606 126.223 80.6404 126.096C82.2933 125.969 83.692 126.477 84.582 127.367C86.1078 128.766 86.2349 131.182 86.1078 132.072L88.7779 132.199C88.9051 130.546 88.6508 127.494 86.3621 125.333C84.8363 123.934 82.8019 123.298 80.3861 123.426C77.4617 123.553 74.6644 124.824 73.0114 126.731C71.8671 128.003 71.6128 129.274 71.3585 130.164C71.1042 131.055 71.1042 131.309 70.5956 131.69C69.8327 132.199 68.8155 132.072 67.1626 131.563C65.5097 131.182 63.7296 130.673 61.8223 131.563C59.2794 132.707 57.8807 135.759 57.4993 140.972H60.2965Z" fill="#263959"/>
<path d="M84.582 138.175C84.8363 135.25 85.2178 132.453 85.4721 129.529C85.9807 129.147 86.9979 128.511 88.3965 128.257C90.1766 128.003 91.5752 128.511 92.211 128.766C92.7196 130.291 93.101 131.817 93.6096 133.343C96.2797 133.089 98.9499 132.834 101.62 132.58C101.874 129.529 102.256 126.477 102.51 123.298C103.654 122.408 108.74 118.975 115.734 119.865C123.617 120.755 127.94 126.223 128.703 127.24C128.448 129.91 128.067 132.58 127.813 135.123C129.72 135.505 131.5 136.013 133.407 136.395C134.17 134.996 134.933 133.597 135.696 132.199C136.332 132.072 137.985 131.563 139.892 132.199C141.799 132.834 142.943 134.106 143.325 134.615C143.198 137.539 143.071 140.463 143.071 143.388C123.49 141.608 104.036 139.828 84.582 138.175Z" fill="#263959"/>
<path d="M82.4205 190.687C82.1662 192.594 81.9119 195.9 83.4377 199.46C86.8707 207.725 96.0254 209.759 97.0426 210.014C96.534 219.041 95.8983 228.196 95.3897 237.224C96.9155 238.241 100.476 240.529 105.689 240.784C111.538 241.165 115.861 238.749 117.386 237.859C118.149 229.467 118.912 221.203 119.675 212.811C121.201 212.938 129.974 213.192 136.077 206.581C138.62 203.783 139.765 200.732 140.4 198.825C121.074 196.154 101.747 193.357 82.4205 190.687Z" fill="#263959"/>
<path d="M48.8532 138.938C65.5097 136.903 85.8536 135.886 108.995 137.666C136.077 139.7 159.091 145.041 176.892 150.635C178.927 154.577 181.978 161.57 182.105 170.725C182.232 187.508 172.442 198.825 169.772 201.749C152.861 203.656 131.246 204.546 106.452 201.749C81.149 198.952 59.9152 193.23 43.7672 187.508C41.86 183.567 38.6813 175.429 39.1899 164.876C39.9528 151.525 46.1831 142.371 48.8532 138.938Z" fill="#DFEBF5"/>
<path d="M127.304 195.01C118.912 196.536 107.087 197.68 93.3554 196.027C84.7093 194.883 77.3346 192.975 71.3586 190.814C69.8328 185.982 67.2899 176.065 69.4514 163.731C71.3586 153.051 75.8088 145.422 78.6061 141.353C85.5993 140.336 95.6441 139.573 107.596 141.353C118.022 143.006 126.414 146.057 132.517 148.728L127.304 195.01Z" fill="#93B2C9"/>
<path opacity="0.63" d="M83.0562 143.261C80.6404 146.185 78.2245 149.999 76.3173 154.958C70.2141 170.47 74.7915 184.838 76.6987 189.924C81.4032 191.704 86.7435 193.23 92.8467 194.502C106.706 197.172 118.658 196.409 127.431 195.137C129.974 191.577 134.297 184.584 135.823 174.794C137.73 162.587 134.297 153.051 132.644 148.982C125.778 146.694 116.878 144.532 106.452 143.515C97.424 142.371 89.5408 142.625 83.0562 143.261Z" fill="#405D9E"/>
<path d="M90.0495 172.886C93.2283 177.336 96.0255 181.913 98.5685 186.745C100.094 189.669 104.545 188.779 105.435 185.855C108.74 175.047 113.699 165.13 120.565 156.229C123.49 152.415 118.149 147.074 115.225 150.889C107.469 160.807 101.747 171.741 98.0599 183.821C100.349 183.566 102.637 183.185 104.926 182.93C102.383 178.099 99.5857 173.521 96.407 169.071C93.7369 165.13 87.2523 168.944 90.0495 172.886Z" fill="#F7F8FC"/>
<path d="M53.812 177.718C58.5169 177.718 62.3309 171.684 62.3309 164.24C62.3309 156.797 58.5169 150.763 53.812 150.763C49.107 150.763 45.293 156.797 45.293 164.24C45.293 171.684 49.107 177.718 53.812 177.718Z" fill="#93B2C9"/>
<path d="M154.387 190.814C161.198 190.814 166.72 184.153 166.72 175.937C166.72 167.721 161.198 161.061 154.387 161.061C147.575 161.061 142.053 167.721 142.053 175.937C142.053 184.153 147.575 190.814 154.387 190.814Z" fill="#93B2C9"/>
<path d="M54.0664 172.379C54.0664 173.651 54.8293 174.668 55.7193 174.668C56.6094 174.668 57.3723 173.651 57.3723 172.379C57.3723 171.108 56.6094 170.09 55.7193 170.09C54.8293 170.09 54.0664 171.108 54.0664 172.379Z" fill="#617585"/>
<path d="M55.7193 160.045C56.6322 160.045 57.3723 159.02 57.3723 157.756C57.3723 156.492 56.6322 155.468 55.7193 155.468C54.8065 155.468 54.0664 156.492 54.0664 157.756C54.0664 159.02 54.8065 160.045 55.7193 160.045Z" fill="#617585"/>
<path d="M50.6333 168.437C50.6333 169.709 51.3962 170.726 52.2862 170.726C53.1763 170.726 53.9392 169.709 53.9392 168.437C53.9392 167.166 53.1763 166.148 52.2862 166.148C51.3962 166.148 50.6333 167.166 50.6333 168.437Z" fill="#617585"/>
<path d="M57.8809 168.437C57.8809 169.709 58.6438 170.726 59.5338 170.726C60.4238 170.726 61.1867 169.709 61.1867 168.437C61.1867 167.166 60.4238 166.148 59.5338 166.148C58.5166 166.148 57.8809 167.166 57.8809 168.437Z" fill="#617585"/>
<path d="M55.7193 167.675C56.6322 167.675 57.3723 166.65 57.3723 165.386C57.3723 164.122 56.6322 163.097 55.7193 163.097C54.8065 163.097 54.0664 164.122 54.0664 165.386C54.0664 166.65 54.8065 167.675 55.7193 167.675Z" fill="#617585"/>
<path d="M50.6333 161.445C50.6333 162.716 51.3962 163.734 52.2862 163.734C53.1763 163.734 53.9392 162.716 53.9392 161.445C53.9392 160.173 53.1763 159.156 52.2862 159.156C51.3962 159.156 50.6333 160.173 50.6333 161.445Z" fill="#617585"/>
<path d="M57.8809 161.445C57.8809 162.716 58.6438 163.734 59.5338 163.734C60.4238 163.734 61.1867 162.716 61.1867 161.445C61.1867 160.173 60.4238 159.156 59.5338 159.156C58.5166 159.156 57.8809 160.173 57.8809 161.445Z" fill="#617585"/>
<path d="M152.988 184.457C152.988 185.729 153.878 186.746 154.896 186.746C155.913 186.746 156.803 185.729 156.803 184.457C156.803 183.186 155.913 182.168 154.896 182.168C153.878 182.041 152.988 183.186 152.988 184.457Z" fill="#617585"/>
<path d="M152.988 169.708C152.988 170.979 153.878 171.996 154.896 171.996C155.913 171.996 156.803 170.979 156.803 169.708C156.803 168.436 155.913 167.419 154.896 167.419C153.878 167.419 152.988 168.436 152.988 169.708Z" fill="#617585"/>
<path d="M148.919 180.516C148.919 181.787 149.809 182.804 150.827 182.804C151.844 182.804 152.734 181.787 152.734 180.516C152.734 179.244 151.844 178.227 150.827 178.227C149.809 178.227 148.919 179.244 148.919 180.516Z" fill="#617585"/>
<path d="M157.311 180.515C157.311 181.787 158.201 182.804 159.219 182.804C160.236 182.804 161.126 181.787 161.126 180.515C161.126 179.244 160.236 178.226 159.219 178.226C158.201 178.099 157.311 179.244 157.311 180.515Z" fill="#617585"/>
<path d="M152.988 177.465C152.988 178.736 153.878 179.754 154.896 179.754C155.913 179.754 156.803 178.736 156.803 177.465C156.803 176.193 155.913 175.176 154.896 175.176C153.878 175.049 152.988 176.066 152.988 177.465Z" fill="#617585"/>
<path d="M150.827 175.811C151.88 175.811 152.734 174.786 152.734 173.522C152.734 172.258 151.88 171.233 150.827 171.233C149.773 171.233 148.919 172.258 148.919 173.522C148.919 174.786 149.773 175.811 150.827 175.811Z" fill="#617585"/>
<path d="M159.219 175.811C160.272 175.811 161.126 174.786 161.126 173.522C161.126 172.258 160.272 171.233 159.219 171.233C158.165 171.233 157.311 172.258 157.311 173.522C157.311 174.786 158.165 175.811 159.219 175.811Z" fill="#617585"/>
<path d="M93.864 219.932L117.514 225.018C119.802 225.526 121.964 224.128 122.473 221.839C122.981 219.55 121.583 217.389 119.294 216.88L95.6441 211.794C93.3555 211.286 91.1939 212.684 90.6853 214.973C90.1767 217.262 91.5754 219.423 93.864 219.932Z" fill="#263959"/>
<path d="M92.9739 226.796L116.624 231.882C118.912 232.391 121.074 230.992 121.582 228.704C122.091 226.415 120.692 224.254 118.404 223.745L94.754 218.659C92.4653 218.15 90.3038 219.549 89.7952 221.838C89.2866 224.126 90.6852 226.415 92.9739 226.796Z" fill="#263959"/>
<path d="M142.435 238.748C143.452 241.8 144.342 245.36 144.724 249.556C145.741 261.762 141.926 271.425 139.383 276.384C142.435 276.384 147.012 276.893 151.971 279.054C162.016 283.505 166.72 291.896 168.119 294.694C150.827 294.694 133.407 294.694 116.115 294.694C117.005 284.14 117.895 273.46 118.785 262.906C117.386 262.652 114.208 262.016 111.792 259.346C108.359 255.405 108.995 249.81 109.885 247.267C112.555 240.147 125.778 236.205 142.435 238.748Z" fill="#DFEBF5"/>
<path d="M93.3553 246.251C89.1594 247.142 83.4377 247.777 79.7504 244.599C75.173 240.657 76.5716 233.537 74.1558 233.028C71.6128 232.519 67.5441 240.148 65.1282 247.523C62.9667 254.008 60.5509 264.307 62.331 278.42C60.5509 279.31 55.5921 281.98 52.9219 287.829C51.6504 290.627 51.269 293.169 51.1418 294.95C62.4581 294.95 73.9015 294.95 85.2178 294.95C86.8707 284.523 88.3965 274.224 90.0494 263.798C91.1938 262.654 92.9739 260.492 93.8639 257.186C95.5169 251.973 93.9911 247.65 93.3553 246.251Z" fill="#DFEBF5"/>
<path d="M140.528 214.845C140.4 217.769 140.273 220.694 140.019 223.618C141.926 223.872 143.961 224.254 145.868 224.508C145.995 224.508 147.521 225.525 147.648 227.433C147.648 228.704 147.012 229.848 145.868 230.484C143.833 230.866 141.672 231.247 139.638 231.629C144.342 242.182 138.493 252.862 131.119 254.643C124.761 256.168 116.242 251.337 113.445 242.309C111.919 242.818 109.758 243.326 107.215 243.199C103.273 243.072 100.348 241.801 98.6955 240.91C93.8639 251.718 86.3621 258.838 81.6576 257.694C76.4445 256.423 72.1214 244.598 75.4273 228.831C73.52 227.941 71.4857 227.051 69.5784 226.161C68.6884 225.525 68.0526 224.381 68.1798 223.237C68.4341 221.584 69.8327 220.821 69.9599 220.821C72.3757 220.439 74.7915 220.185 77.2074 219.804C77.5888 217.006 78.0974 214.209 78.4788 211.285C84.4549 208.742 96.6612 204.546 112.3 205.944C125.27 207.343 135.06 211.793 140.528 214.845Z" fill="#263959"/>
<path d="M112.555 248.541C111.538 248.668 110.775 251.084 110.902 252.864C111.029 257.06 115.098 260.874 116.496 260.238C117.641 259.73 117.005 255.915 116.369 253.881C115.606 251.719 113.953 248.286 112.555 248.541Z" fill="#263959"/>
<path d="M123.871 279.563C121.582 280.199 120.692 282.615 120.438 283.251C119.294 286.175 119.929 290.753 122.345 291.388C123.998 291.897 126.414 290.371 128.067 287.828C131.881 288.591 135.696 289.227 139.637 289.99C140.019 288.591 140.655 286.684 142.053 284.777C145.105 280.454 149.428 279.055 150.954 278.673C150.445 278.165 149.428 277.275 147.648 276.893C146.249 276.512 144.978 276.766 144.342 276.893C143.07 277.656 141.545 278.801 140.146 280.454C137.985 282.869 136.84 285.158 136.204 286.811C133.661 286.43 131.118 286.048 128.576 285.667C129.466 283.887 129.084 281.725 127.813 280.454C126.287 278.928 123.998 279.436 123.871 279.563Z" fill="#263959"/>
<path d="M167.992 294.822H115.988V298.001H167.992V294.822Z" fill="#263959"/>
<path d="M85.2179 294.822H51.3962V298.001H85.2179V294.822Z" fill="#263959"/>
<path d="M57.1179 281.471C58.6437 281.217 60.5509 281.217 62.4582 281.598C70.7229 283.124 75.1731 290.626 76.0631 292.279C78.3518 291.007 80.5133 289.608 82.802 288.337C82.6749 291.643 83.1835 292.66 83.8192 292.787C85.4722 293.296 90.3038 287.828 89.0323 283.632C88.6509 282.488 87.6337 280.835 86.3622 280.835C84.9636 280.835 83.4378 282.742 83.0563 285.667C81.1491 286.684 79.2419 287.701 77.3346 288.846C76.0631 285.794 74.4102 283.887 73.2658 282.87C69.8328 279.818 63.7297 277.021 59.5338 279.437C58.2623 279.945 57.4994 280.835 57.1179 281.471Z" fill="#263959"/>
<path d="M162.524 149.745C162.524 149.999 162.397 155.594 167.229 158.646C170.408 160.553 174.349 160.68 177.528 158.9C179.817 159.79 182.36 160.807 184.648 161.824C189.607 163.859 194.566 165.893 199.525 167.927C201.559 171.36 205.374 173.141 209.061 172.505C212.24 171.996 215.164 169.708 216.181 166.274C217.071 162.969 216.054 159.154 213.13 156.993C210.587 155.085 207.154 154.704 204.102 156.23C196.219 152.034 188.336 147.838 180.58 143.642C180.071 143.388 175.239 140.336 169.645 142.498C164.432 144.151 162.779 149.109 162.524 149.745Z" fill="#263959"/>
<path d="M184.394 123.806C186.683 129.019 189.099 134.486 191.387 140.335C193.676 146.184 195.583 151.779 197.236 157.119C201.813 161.823 208.68 163.476 214.401 161.188C220.886 158.645 222.92 152.287 223.302 151.397C224.065 145.548 224.319 137.538 222.666 128.256C221.522 121.899 219.741 116.431 217.961 112.235C216.563 111.345 209.442 107.276 200.669 109.438C189.099 111.981 184.775 122.789 184.394 123.806Z" fill="#DFEBF5"/>
<path d="M195.202 119.992C191.515 119.737 189.353 119.737 187.064 118.339C183.631 116.431 184.013 114.524 180.453 112.363C176.384 109.947 173.332 110.964 172.569 108.93C171.934 107.404 173.205 105.369 174.349 104.352C176.384 102.572 179.817 102.572 182.741 104.479C183.377 102.318 184.013 100.029 184.648 97.8676C184.521 92.1459 184.013 87.6957 183.504 84.517C183.123 81.5925 182.614 79.1767 184.14 77.6509C185.411 76.3794 187.827 75.8708 189.353 76.7609C190.624 77.5238 191.006 78.9224 191.769 82.2283C192.277 84.2627 193.04 87.0599 194.185 90.6201C194.566 89.9844 195.075 89.0943 196.092 88.5857C197.999 87.4414 200.796 87.8228 203.085 89.6029C206.137 88.5857 209.188 89.6029 210.333 91.6373C211.223 93.1631 210.841 94.816 210.714 95.4518C212.494 95.4518 213.384 96.0875 213.766 96.3418C215.673 97.8676 216.309 101.173 214.783 104.479C215.291 107.149 215.8 109.947 216.181 112.617C214.91 113.888 213.003 115.668 210.205 117.194C204.484 120.5 198.889 120.246 195.202 119.992Z" fill="#263959"/>
<path d="M171.552 153.559C173.968 153.94 175.748 155.466 175.494 156.865C175.239 158.263 173.078 159.026 170.662 158.645C168.246 158.263 166.466 156.737 166.72 155.339C166.975 153.813 169.136 153.05 171.552 153.559Z" fill="#DFEBF5"/>
<path d="M211.858 120.373C210.841 122.026 209.697 124.442 208.807 127.239C207.917 130.291 207.535 132.961 207.408 134.995C209.315 134.741 212.24 134.232 215.419 132.579C217.834 131.308 219.615 129.909 220.759 128.765C219.869 127.239 218.343 125.078 215.927 123.043C214.529 121.899 213.13 121.009 211.858 120.373Z" fill="#263959"/>
<path d="M133.026 103.082C132.772 111.092 132.517 118.976 132.39 126.986C129.847 128.13 126.16 129.402 121.455 129.656C113.572 130.165 107.342 127.749 104.417 126.223C104.036 119.484 103.654 112.745 103.4 106.134C113.318 105.116 123.108 104.099 133.026 103.082Z" fill="#263959"/>
<path d="M164.559 58.1968C168.373 58.9597 172.188 59.7226 176.002 60.4855C176.765 62.0112 177.401 63.7913 177.782 65.9529C179.181 72.8189 176.892 78.6678 175.748 81.2108C171.806 82.4822 167.865 83.7537 163.796 85.1524C163.033 82.4822 162.397 79.3035 162.27 75.6162C161.889 68.2416 163.287 62.1384 164.559 58.1968Z" fill="#93B2C9"/>
<path d="M55.2107 74.6001C51.7776 76.3802 48.3446 78.2874 44.9116 80.0675C44.6573 81.7204 44.5302 83.6277 44.6573 85.7892C45.293 92.7824 49.1075 97.7412 51.0148 99.9028C55.2107 100.03 59.4066 100.157 63.4754 100.284C63.4754 97.4869 63.0939 94.3082 62.2039 90.6209C60.6781 83.3734 57.6265 78.0331 55.2107 74.6001Z" fill="#93B2C9"/>
<path d="M113.445 25.9014C112.682 24.3756 110.902 21.7055 107.596 20.0525C102.383 17.5096 95.644 19.0353 90.558 23.7399C89.0322 20.434 86.3621 15.8566 82.039 11.2792C74.7915 3.9046 64.7468 -1.43566 63.221 0.344431C61.8223 1.99737 67.7983 9.75346 71.9942 14.0765C77.8431 20.3068 84.0734 23.867 88.5236 25.9014C88.015 27.5543 87.5064 29.2073 86.9978 30.9873C95.7711 29.3344 104.544 27.5543 113.445 25.9014Z" fill="#263959"/>
<path d="M167.229 88.4588C166.847 89.9846 166.593 91.1289 166.339 92.019C155.658 97.9949 137.095 106.641 112.555 109.311C92.2109 111.6 75.3001 108.93 64.2381 106.26C63.7295 105.37 62.9667 104.352 62.3309 103.208C58.5164 96.7235 53.049 84.8986 52.9219 69.3864C52.9219 60.2317 54.702 52.4756 56.7363 46.6267C57.7535 43.8295 58.7707 41.4136 59.6608 39.6336C70.3413 33.9118 86.3621 27.0458 106.579 23.4856C120.692 21.0698 133.153 20.9426 142.943 21.7055C144.596 22.977 146.885 24.8843 149.301 27.3001C154.005 32.0046 159.6 38.8707 163.542 48.2797C170.916 65.0634 168.882 80.5755 167.229 88.4588Z" fill="#DFEBF5"/>
<path d="M167.229 88.459C155.277 90.2391 143.325 92.1463 131.5 93.9264C126.923 86.6789 120.692 75.1083 117.641 59.5961C115.479 48.9156 115.479 39.5066 115.988 32.5134C119.294 30.7333 124.125 28.5718 130.229 27.4274C138.366 25.7745 145.232 26.5374 149.555 27.3003C154.26 32.0048 159.854 38.8709 163.796 48.2799C170.916 65.0635 168.882 80.5757 167.229 88.459Z" fill="#2B2045"/>
<path d="M116.497 104.608C111.156 104.608 107.342 101.937 106.198 101.047C105.562 100.539 105.435 99.5217 105.943 98.8859C106.452 98.2502 107.469 98.123 108.105 98.6316C109.122 99.5217 112.936 102.192 118.15 101.429C122.727 100.793 125.524 97.9959 126.541 96.7244C127.05 96.0886 128.067 95.9615 128.703 96.4701C129.339 96.9787 129.466 97.9959 128.957 98.6316C127.686 100.157 124.253 103.59 118.658 104.48C117.895 104.608 117.259 104.608 116.497 104.608Z" fill="#263959"/>
<path d="M101.239 97.9946C94.4996 99.5204 86.9978 100.919 78.8603 101.809C73.0114 102.445 67.544 102.826 62.3309 103.081C58.5164 96.596 53.049 84.7711 52.9219 69.2589C52.9219 60.1042 54.702 52.3481 56.7363 46.4993C60.2965 43.8291 66.0182 40.269 73.6472 37.726C81.2761 35.183 88.015 34.6744 92.5924 34.8016C96.1525 40.1418 102.001 50.568 104.036 64.9359C106.197 79.8123 103.273 91.8915 101.239 97.9946Z" fill="#2B2045"/>
<path opacity="0.63" d="M164.813 69.8953C161.253 56.2903 150.191 47.1356 138.366 46.8813C127.558 46.627 120.184 54.1288 118.658 55.6546C118.149 53.4931 117.768 51.0772 117.641 48.4071C117.259 43.3211 117.641 38.8709 118.149 35.1836C120.947 37.4723 128.576 43.194 139.892 43.9569C148.157 44.5926 154.641 42.3039 157.947 40.9053C159.6 43.7026 161.253 47.3899 162.652 51.713C164.94 59.0876 165.195 65.4451 164.813 69.8953Z" fill="#006DAB"/>
<path opacity="0.63" d="M102.637 78.0322C99.5856 64.3001 88.1422 54.891 76.1902 55.0182C63.4753 55.1453 55.8463 66.0802 55.0834 67.2245C54.702 65.4444 54.4477 63.1557 54.5748 60.4856C54.8291 55.0182 56.6092 50.8223 57.8807 48.2793C62.0766 49.9322 68.9427 52.0938 77.7159 52.0938C85.472 52.0938 91.8295 50.4408 95.7711 49.0422C97.424 51.8395 99.077 55.5268 100.476 59.8499C102.764 67.2245 102.891 73.7091 102.637 78.0322Z" fill="#006DAB"/>
<path d="M134.297 87.9502C133.789 87.9502 133.28 87.8231 132.772 87.6959C130.356 86.8059 129.084 84.1357 129.974 81.7199C130.992 78.7955 133.789 73.2009 139.892 69.2593C144.724 66.2077 149.555 65.4448 152.607 65.4448C152.607 65.4448 152.607 65.4448 152.734 65.4448C155.277 65.4448 157.311 67.4792 157.439 70.0222C157.439 72.5652 155.404 74.7267 152.861 74.7267C150.827 74.7267 147.902 75.2353 144.978 77.1425C141.164 79.5584 139.511 82.9914 138.875 84.8986C137.985 86.8059 136.205 87.9502 134.297 87.9502Z" fill="#6BBDFF"/>
<path d="M93.2282 93.9251C91.8296 93.9251 90.5581 93.2893 89.5409 92.145C88.6508 91.0006 85.9807 88.2033 81.6576 87.3133C77.8432 86.5504 74.7916 87.6947 73.2658 88.4576C70.9771 89.602 68.1798 88.7119 67.0355 86.2961C65.8912 84.0074 66.7812 81.2101 69.197 80.0658C71.74 78.7943 77.0803 76.8871 83.5649 78.1586C90.9395 79.5572 95.3897 84.3889 96.9155 86.2961C98.5685 88.3305 98.187 91.2549 96.1526 92.7807C95.2626 93.5436 94.2454 93.9251 93.2282 93.9251Z" fill="#6BBDFF"/>
<path opacity="0.35" d="M165.576 73.583C163.542 74.7273 161.38 75.7445 159.091 76.7617C146.376 81.8477 134.424 81.3391 126.414 80.1948C128.448 84.1364 130.483 88.078 132.39 92.0196C143.452 90.1124 154.387 88.3323 165.449 86.4251C165.703 84.3907 165.83 82.2291 165.83 79.8133C165.83 77.5246 165.703 75.4902 165.576 73.583Z" fill="#3B5794"/>
<path opacity="0.35" d="M101.62 82.3545C99.2044 83.4988 96.6614 84.6432 93.8641 85.6604C81.4035 90.492 69.7058 92.2721 60.0425 92.7807C61.1868 95.4508 62.3312 98.121 63.4755 100.791C68.6886 100.537 74.5375 100.155 80.7678 99.2653C88.0153 98.2481 94.627 96.8495 100.349 95.3237C100.603 93.6708 100.857 91.8907 100.984 90.1106C101.112 87.4405 101.366 84.8975 101.62 82.3545Z" fill="#3B5794"/>
<path d="M51.5337 148.254C51.4066 148.127 47.465 144.058 41.9976 145.203C38.4374 145.966 35.513 148.763 34.4958 152.323C32.2071 153.213 29.6641 154.357 27.3754 155.247C22.4166 157.282 17.4578 159.316 12.6261 161.351C8.81167 160.333 4.7429 161.732 2.58137 164.784C0.674133 167.327 0.292686 171.141 1.94562 174.193C3.59856 177.244 7.03158 179.151 10.7189 178.643C13.8976 178.261 16.5678 175.973 17.7121 172.921C26.2311 170.378 34.7501 167.835 43.3962 165.292C43.9048 165.165 49.6265 163.894 52.0423 158.426C54.0767 153.595 51.9152 148.89 51.5337 148.254Z" fill="#263959"/>
<path d="M42.506 151.941C40.4716 153.339 38.1829 153.594 37.2929 152.322C36.53 151.178 37.42 149.016 39.5816 147.618C41.616 146.219 43.9046 145.965 44.7947 147.236C45.5576 148.508 44.5404 150.542 42.506 151.941Z" fill="#DFEBF5"/>
<path d="M46.8292 170.633C41.1075 170.505 35.1315 170.124 28.9012 169.488C22.6709 168.98 16.822 168.217 11.2275 167.327C4.87001 169.361 0.546948 174.828 0.0383518 180.932C-0.470244 187.798 4.23427 192.502 4.99716 193.265C9.82883 196.444 16.9492 200.258 25.9768 202.928C32.2071 204.708 37.8016 205.471 42.5061 205.853C43.9048 204.963 50.7708 200.385 52.678 191.612C55.3482 180.042 47.5921 171.395 46.8292 170.633Z" fill="#DFEBF5"/>
<path d="M45.8121 180.043C47.5922 176.737 48.6093 174.957 50.898 173.431C53.9496 171.397 55.0939 172.032 59.1627 170.125C66.2831 166.819 68.1903 161.606 71.2419 162.496C72.7677 163.005 73.5306 164.531 73.7849 165.675C74.4206 167.964 72.8948 169.998 72.0048 171.142C69.8432 174.194 66.6645 175.338 65.1387 175.72C67.6817 178.39 70.2247 181.187 72.7677 183.857C77.345 186.909 78.8708 191.613 77.2179 194.411C76.2007 196.191 74.1663 196.954 73.1491 197.208C73.7849 199.115 73.1491 201.277 71.7505 202.548C70.2247 203.947 68.3174 203.947 67.936 203.82C67.5546 204.328 66.2831 205.473 64.2487 205.981C61.96 206.49 60.1799 205.6 59.6713 205.345C59.417 205.727 58.3998 207.126 56.6197 207.507C54.4582 207.888 52.0424 206.617 50.7709 204.328C48.1008 203.565 45.4306 202.802 42.7605 202.04C42.1247 200.387 41.3619 197.844 41.3619 194.665C41.2347 188.053 44.032 183.222 45.8121 180.043Z" fill="#263959"/>
<path d="M56.3653 189.577C53.8223 194.536 50.135 197.715 47.9735 196.571C45.8119 195.553 46.1934 190.595 48.7363 185.636C51.2793 180.677 54.9667 177.498 57.1282 178.643C59.1626 179.787 58.9083 184.619 56.3653 189.577Z" fill="#DFEBF5"/>
<path d="M23.561 203.565C23.1795 203.31 22.9252 202.929 22.9252 202.42L23.8153 194.537L15.6777 190.214L18.3479 178.008L27.7569 176.355L29.0284 169.743C29.1555 169.107 29.7913 168.726 30.427 168.853C31.0628 168.98 31.4442 169.616 31.3171 170.252L29.7913 178.516L20.3822 180.169L18.3479 189.197L26.3583 193.52L25.3411 203.056C25.2139 203.692 24.7053 204.073 24.0696 204.073C23.8153 203.692 23.6881 203.565 23.561 203.565Z" fill="#263959"/>
</svg>
