<svg width="222" height="245" viewBox="0 0 222 245" fill="none" xmlns="http://www.w3.org/2000/svg">
<g clip-path="url(#clip0)">
<path d="M131.6 198.3C132.4 200.7 133.1 203.5 133.4 206.8C134.2 216.4 131.2 224 129.2 227.9C131.6 227.9 135.2 228.3 139.1 230C147 233.5 150.7 240.1 151.8 242.3C138.2 242.3 124.5 242.3 110.9 242.3C111.6 234 112.3 225.6 113 217.3C111.9 217.1 109.4 216.6 107.5 214.5C104.8 211.4 105.3 207 106 205C108.1 199.3 118.4 196.3 131.6 198.3Z" fill="#DFEBF5"/>
<path d="M93 204.1C89.7001 204.8 85.2001 205.3 82.3001 202.8C78.7001 199.7 79.8001 194.1 77.9001 193.7C75.9001 193.3 72.7001 199.3 70.8001 205.1C69.1001 210.2 67.2 218.3 68.6 229.4C67.2 230.1 63.3001 232.2 61.2001 236.8C60.2001 239 59.9 241 59.8 242.4C68.7 242.4 77.7 242.4 86.6 242.4C87.9 234.2 89.1001 226.1 90.4001 217.9C91.3001 217 92.7001 215.3 93.4001 212.7C94.6001 208.7 93.4001 205.2 93 204.1Z" fill="#DFEBF5"/>
<path d="M130 179.5C129.9 181.8 129.8 184.1 129.6 186.4C131.1 186.6 132.7 186.9 134.2 187.1C134.3 187.1 135.5 187.9 135.6 189.4C135.6 190.4 135.1 191.3 134.2 191.8C132.6 192.1 130.9 192.4 129.3 192.7C133 201 128.4 209.4 122.6 210.8C117.6 212 110.9 208.2 108.7 201.1C107.5 201.5 105.8 201.9 103.8 201.8C100.7 201.7 98.4001 200.7 97.1001 200C93.3001 208.5 87.4001 214.1 83.7001 213.2C79.6001 212.2 76.2001 202.9 78.8001 190.5C77.3001 189.8 75.7001 189.1 74.2001 188.4C73.5001 187.9 73.0001 187 73.1001 186.1C73.3001 184.8 74.4001 184.2 74.5001 184.2C76.4001 183.9 78.3001 183.7 80.2001 183.4C80.5001 181.2 80.9001 179 81.2001 176.7C85.9001 174.7 95.5001 171.4 107.8 172.5C118 173.5 125.7 177.1 130 179.5Z" fill="#263959"/>
<path d="M108.1 206C107.3 206.1 106.7 208 106.8 209.4C106.9 212.7 110.1 215.7 111.2 215.2C112.1 214.8 111.6 211.8 111.1 210.2C110.4 208.5 109.1 205.8 108.1 206Z" fill="#263959"/>
<path d="M117 230.3C115.2 230.8 114.5 232.7 114.3 233.2C113.4 235.5 113.9 239.1 115.8 239.6C117.1 240 119 238.8 120.3 236.8C123.3 237.4 126.3 237.9 129.4 238.5C129.7 237.4 130.2 235.9 131.3 234.4C133.7 231 137.1 229.9 138.3 229.6C137.9 229.2 137.1 228.5 135.7 228.2C134.6 227.9 133.6 228.1 133.1 228.2C132.1 228.8 130.9 229.7 129.8 231C128.1 232.9 127.2 234.7 126.7 236C124.7 235.7 122.7 235.4 120.7 235.1C121.4 233.7 121.1 232 120.1 231C118.8 229.9 117.1 230.3 117 230.3Z" fill="#263959"/>
<path d="M151.7 242.3H110.8V244.8H151.7V242.3Z" fill="#263959"/>
<path d="M86.5001 242.3H59.9001V244.8H86.5001V242.3Z" fill="#263959"/>
<path d="M64.4001 231.8C65.6001 231.6 67.1001 231.6 68.6001 231.9C75.1001 233.1 78.6001 239 79.3001 240.3C81.1001 239.3 82.8001 238.2 84.6001 237.2C84.5001 239.8 84.9001 240.6 85.4001 240.7C86.7001 241.1 90.5001 236.8 89.5001 233.5C89.2001 232.6 88.4001 231.3 87.4001 231.3C86.3001 231.3 85.1001 232.8 84.8001 235.1C83.3001 235.9 81.8001 236.7 80.3001 237.6C79.3001 235.2 78.0001 233.7 77.1001 232.9C74.4001 230.5 69.6001 228.3 66.3001 230.2C65.4001 230.7 64.8001 231.4 64.4001 231.8Z" fill="#263959"/>
<path d="M149.5 116C151.5 108.3 151.3 103.9 148.7 102.1C147.7 101.4 146.7 101.3 145.6 101.3C144.5 101.3 143.2 101.3 141.3 100.5C140.1 100.1 139.3 99.6001 138.6 99.1001C137.5 98.4001 136.5 97.9001 135.1 98.1001C133.2 98.4001 131.7 100.1 130.4 103.1L132.4 103.9C133.3 101.6 134.4 100.3 135.5 100.2C136.1 100.1 136.5 100.3 137.5 100.9C138.3 101.3 139.2 101.9 140.6 102.4C142.9 103.2 144.5 103.3 145.6 103.3C146.6 103.3 147.1 103.3 147.5 103.7C148.4 104.4 149.7 106.8 147.5 115.4L149.5 116Z" fill="#263959"/>
<path d="M70 108.4C70.3 105.3 71 103.3 72.2 102.8C73 102.4 73.9 102.7 75 103C76.4 103.4 77.9 103.8 79.4 102.8C80.5 102.1 80.7 101.1 80.9 100.4C81.1 99.7999 81.2 99.1999 81.7 98.5999C82.6 97.4999 84.4 96.7999 86 96.6999C87.3 96.5999 88.4 96.9999 89.1 97.6999C90.3 98.7999 90.4 100.7 90.3 101.4L92.4 101.5C92.5 100.2 92.3 97.7999 90.5 96.0999C89.3 94.9999 87.7 94.4999 85.8 94.5999C83.5 94.6999 81.3 95.6999 80 97.1999C79.1 98.1999 78.9 99.1999 78.7 99.8999C78.5 100.6 78.5 100.8 78.1 101.1C77.5 101.5 76.7 101.4 75.4 101C74.1 100.7 72.7 100.3 71.2 101C69.2 101.9 68.1 104.3 67.8 108.4H70Z" fill="#263959"/>
<path d="M89 106.2C89.2 103.9 89.5 101.7 89.7 99.3999C90.1 99.0999 90.9 98.5999 92 98.3999C93.4 98.1999 94.5 98.5999 95 98.7999C95.4 99.9999 95.7 101.2 96.1 102.4C98.2 102.2 100.3 102 102.4 101.8C102.6 99.3999 102.9 96.9999 103.1 94.4999C104 93.7999 108 91.0999 113.5 91.7999C119.7 92.4999 123.1 96.7999 123.7 97.5999C123.5 99.6999 123.2 101.8 123 103.8C124.5 104.1 125.9 104.5 127.4 104.8C128 103.7 128.6 102.6 129.2 101.5C129.7 101.4 131 101 132.5 101.5C134 102 134.9 103 135.2 103.4C135.1 105.7 135 108 135 110.3C119.6 108.9 104.3 107.6 89 106.2Z" fill="#263959"/>
<path d="M87.4 147.5C87.2 149 87 151.6 88.2 154.4C90.9 160.9 98.1 162.5 98.9 162.7C98.5 169.8 98 177 97.6 184.1C98.8 184.9 101.6 186.7 105.7 186.9C110.3 187.2 113.7 185.3 114.9 184.6C115.5 178 116.1 171.5 116.7 164.9C117.9 165 124.8 165.2 129.6 160C131.6 157.8 132.5 155.4 133 153.9C117.7 151.8 102.5 149.7 87.4 147.5Z" fill="#263959"/>
<path d="M60.9001 106.9C74.0001 105.3 90.0001 104.5 108.2 105.9C129.5 107.5 147.6 111.7 161.6 116.1C163.2 119.2 165.6 124.7 165.7 131.9C165.8 145.1 158.1 154 156 156.3C142.7 157.8 125.7 158.5 106.2 156.3C86.3001 154.1 69.6001 149.6 56.9001 145.1C55.4001 142 52.9001 135.6 53.3001 127.3C53.9001 116.7 58.9001 109.5 60.9001 106.9Z" fill="#DFEBF5"/>
<path d="M122.6 150.9C116 152.1 106.7 153 95.9 151.7C89.1 150.8 83.3 149.3 78.6 147.6C77.4 143.8 75.4 136 77.1 126.3C78.6 117.9 82.1 111.9 84.3 108.7C89.8 107.9 97.7 107.3 107.1 108.7C115.3 110 122 112.4 126.7 114.5L122.6 150.9Z" fill="#93B2C9"/>
<path d="M87.8001 110.2C85.9001 112.5 84.0001 115.5 82.5001 119.4C77.7001 131.6 81.3001 142.9 82.8001 146.9C86.5001 148.3 90.7001 149.5 95.5001 150.5C106.4 152.6 115.8 152 122.7 151C124.7 148.2 128.1 142.7 129.3 135C130.8 125.4 128.1 117.9 126.8 114.7C121.4 112.9 114.4 111.2 106.2 110.4C99.1001 109.5 92.9001 109.7 87.8001 110.2Z" fill="#2B2045"/>
<path d="M101.53 134.762C101.038 134.449 100.452 133.933 100.073 133.123C99.5923 132.41 99.4165 131.504 99.446 130.405C99.4729 129.405 99.7915 128.714 100.305 128.227C100.818 127.741 101.628 127.362 102.633 127.189L106.356 126.389C107.966 126.032 108.788 125.254 108.817 124.154C108.833 123.554 108.547 123.046 107.96 122.531C107.371 122.115 106.38 121.788 104.98 121.75C103.681 121.715 102.476 121.883 101.268 122.151C100.161 122.421 99.1501 122.794 98.437 123.275C97.9479 122.862 97.4615 122.349 97.0777 121.738C96.694 121.128 96.5128 120.423 96.5343 119.623C96.5558 118.823 96.7771 118.029 97.2931 117.442C97.809 116.856 98.4222 116.372 99.3326 115.997C100.143 115.618 101.151 115.345 102.356 115.177C103.561 115.01 104.763 114.942 106.162 114.98C109.961 115.081 112.739 115.956 114.592 117.707C116.446 119.457 117.387 121.683 117.314 124.382C117.177 129.48 113.49 132.683 106.255 133.889L101.53 134.762ZM99.7614 141.017C99.7962 139.718 100.226 138.629 101.047 137.851C101.868 137.072 102.981 136.602 104.48 136.642C105.88 136.68 107.069 137.112 107.844 138.033C108.623 138.854 108.993 139.964 108.958 141.264C108.923 142.564 108.494 143.652 107.673 144.431C106.851 145.209 105.738 145.679 104.239 145.639C102.839 145.601 101.651 145.169 100.875 144.248C100.097 143.427 99.7265 142.317 99.7614 141.017Z" fill="#6BBDFF"/>
<path d="M64.9002 137.3C68.6005 137.3 71.6002 132.554 71.6002 126.7C71.6002 120.846 68.6005 116.1 64.9002 116.1C61.1999 116.1 58.2002 120.846 58.2002 126.7C58.2002 132.554 61.1999 137.3 64.9002 137.3Z" fill="#93B2C9"/>
<path d="M143.9 147.6C149.257 147.6 153.6 142.361 153.6 135.9C153.6 129.438 149.257 124.2 143.9 124.2C138.543 124.2 134.2 129.438 134.2 135.9C134.2 142.361 138.543 147.6 143.9 147.6Z" fill="#93B2C9"/>
<path d="M65.1001 133.2C65.1001 134.2 65.7001 135 66.4001 135C67.1001 135 67.7001 134.2 67.7001 133.2C67.7001 132.2 67.1001 131.4 66.4001 131.4C65.6001 131.4 65.1001 132.2 65.1001 133.2Z" fill="#617585"/>
<path d="M66.3 123.4C67.018 123.4 67.6 122.594 67.6 121.6C67.6 120.606 67.018 119.8 66.3 119.8C65.582 119.8 65 120.606 65 121.6C65 122.594 65.582 123.4 66.3 123.4Z" fill="#617585"/>
<path d="M62.3 130.1C62.3 131.1 62.9 131.9 63.6 131.9C64.3 131.9 64.9001 131.1 64.9001 130.1C64.9001 129.1 64.3 128.3 63.6 128.3C62.9 128.3 62.3 129.1 62.3 130.1Z" fill="#617585"/>
<path d="M68 130.1C68 131.1 68.6 131.9 69.3 131.9C70 131.9 70.6 131.1 70.6 130.1C70.6 129.1 70 128.3 69.3 128.3C68.6 128.3 68 129.1 68 130.1Z" fill="#617585"/>
<path d="M66.3 129.5C67.018 129.5 67.6 128.694 67.6 127.7C67.6 126.706 67.018 125.9 66.3 125.9C65.582 125.9 65 126.706 65 127.7C65 128.694 65.582 129.5 66.3 129.5Z" fill="#617585"/>
<path d="M62.3 124.6C62.3 125.6 62.9 126.4 63.6 126.4C64.3 126.4 64.9001 125.6 64.9001 124.6C64.9001 123.6 64.3 122.8 63.6 122.8C62.9 122.8 62.3 123.6 62.3 124.6Z" fill="#617585"/>
<path d="M68 124.6C68 125.6 68.6 126.4 69.3 126.4C70 126.4 70.6 125.6 70.6 124.6C70.6 123.6 70 122.8 69.3 122.8C68.6 122.8 68 123.6 68 124.6Z" fill="#617585"/>
<path d="M142.9 142.6C142.9 143.6 143.6 144.4 144.4 144.4C145.2 144.4 145.9 143.6 145.9 142.6C145.9 141.6 145.2 140.8 144.4 140.8C143.5 140.8 142.9 141.6 142.9 142.6Z" fill="#617585"/>
<path d="M142.9 131C142.9 132 143.6 132.8 144.4 132.8C145.2 132.8 145.9 132 145.9 131C145.9 130 145.2 129.2 144.4 129.2C143.5 129.2 142.9 130 142.9 131Z" fill="#617585"/>
<path d="M139.7 139.5C139.7 140.5 140.4 141.3 141.2 141.3C142 141.3 142.7 140.5 142.7 139.5C142.7 138.5 142 137.7 141.2 137.7C140.4 137.7 139.7 138.5 139.7 139.5Z" fill="#617585"/>
<path d="M146.3 139.5C146.3 140.5 147 141.3 147.8 141.3C148.6 141.3 149.3 140.5 149.3 139.5C149.3 138.5 148.6 137.7 147.8 137.7C147 137.7 146.3 138.5 146.3 139.5Z" fill="#617585"/>
<path d="M142.9 137.1C142.9 138.1 143.6 138.9 144.4 138.9C145.2 138.9 145.9 138.1 145.9 137.1C145.9 136.1 145.2 135.3 144.4 135.3C143.5 135.3 142.9 136.1 142.9 137.1Z" fill="#617585"/>
<path d="M141.1 135.8C141.929 135.8 142.6 134.994 142.6 134C142.6 133.006 141.929 132.2 141.1 132.2C140.272 132.2 139.6 133.006 139.6 134C139.6 134.994 140.272 135.8 141.1 135.8Z" fill="#617585"/>
<path d="M147.7 135.8C148.529 135.8 149.2 134.994 149.2 134C149.2 133.006 148.529 132.2 147.7 132.2C146.872 132.2 146.2 133.006 146.2 134C146.2 134.994 146.872 135.8 147.7 135.8Z" fill="#617585"/>
<path d="M96.3002 170.5L114.9 174.5C116.7 174.9 118.4 173.8 118.8 172C119.2 170.2 118.1 168.5 116.3 168.1L97.7002 164.1C95.9002 163.7 94.2002 164.8 93.8002 166.6C93.4002 168.4 94.6002 170.1 96.3002 170.5Z" fill="#263959"/>
<path d="M95.6 176L114.2 180C116 180.4 117.7 179.3 118.1 177.5C118.5 175.7 117.4 174 115.6 173.6L97 169.6C95.2 169.2 93.5 170.3 93.1 172.1C92.8 173.9 93.9 175.6 95.6 176Z" fill="#263959"/>
<path d="M125.3 81.1001C125.1 87.4001 124.9 93.6001 124.8 99.9001C122.8 100.8 119.9 101.8 116.2 102C110 102.4 105.1 100.5 102.8 99.3001C102.5 94.0001 102.3 88.8001 102 83.5001C109.7 82.7001 117.5 81.9001 125.3 81.1001Z" fill="#263959"/>
<path d="M150.1 45.8003C153.1 46.4003 156.1 47.0003 159.1 47.6003C159.7 48.8003 160.2 50.2003 160.5 51.9003C161.6 57.3003 159.8 61.9003 158.9 63.9003C155.8 64.9003 152.7 65.9003 149.5 67.0003C148.9 64.9003 148.4 62.4003 148.3 59.5003C148 53.7003 149.1 48.9003 150.1 45.8003Z" fill="#93B2C9"/>
<path d="M64.1 58.7002C61.4 60.1002 58.7 61.6002 56 63.0002C55.8 64.3002 55.7 65.8002 55.8 67.5002C56.3 73.0002 59.3 76.9002 60.8 78.6002C64.1 78.7002 67.4 78.8002 70.6 78.9002C70.6 76.7002 70.3 74.2002 69.6 71.3002C68.4 65.6002 66 61.4002 64.1 58.7002Z" fill="#93B2C9"/>
<path d="M109.9 20.4002C109.3 19.2002 107.9 17.1002 105.3 15.8002C101.2 13.8002 95.8999 15.0002 91.8999 18.7002C90.6999 16.1002 88.5999 12.5002 85.1999 8.90018C79.4999 3.10018 71.4999 -1.09982 70.2999 0.300185C69.1999 1.60018 73.8999 7.70019 77.1999 11.1002C81.7999 16.0002 86.6999 18.8002 90.1999 20.4002C89.7999 21.7002 89.3999 23.0002 88.9999 24.4002C95.8999 23.1002 102.9 21.7002 109.9 20.4002Z" fill="#263959"/>
<path d="M152.2 69.6004C151.9 70.8004 151.7 71.7004 151.5 72.4004C143.1 77.1004 128.5 83.9004 109.2 86.0004C93.2 87.8004 79.9 85.7004 71.2 83.6004C70.8 82.9004 70.2 82.1004 69.7 81.2004C66.7 76.1004 62.4 66.8004 62.3 54.6004C62.3 47.4004 63.7001 41.3004 65.3001 36.7004C66.1001 34.5004 66.9 32.6004 67.6 31.2004C76 26.7004 88.6 21.3004 104.5 18.5004C115.6 16.6004 125.4 16.5004 133.1 17.1004C134.4 18.1004 136.2 19.6004 138.1 21.5004C141.8 25.2004 146.2 30.6004 149.3 38.0004C155 51.2004 153.5 63.4004 152.2 69.6004Z" fill="#DFEBF5"/>
<path d="M152.2 69.6C142.8 71 133.4 72.5 124.1 73.9C120.5 68.2 115.6 59.1 113.2 46.9C111.5 38.5 111.5 31.1 111.9 25.6C114.5 24.2 118.3 22.5 123.1 21.6C129.5 20.3 134.9 20.9 138.3 21.5C142 25.2 146.4 30.6 149.5 38C155 51.2 153.5 63.4 152.2 69.6Z" fill="#2B2045"/>
<path d="M112.3 82.3001C108.1 82.3001 105.1 80.2001 104.2 79.5001C103.7 79.1001 103.6 78.3001 104 77.8001C104.4 77.3001 105.2 77.2001 105.7 77.6001C106.5 78.3001 109.5 80.4001 113.6 79.8001C117.2 79.3001 119.4 77.1001 120.2 76.1001C120.6 75.6001 121.4 75.5001 121.9 75.9001C122.4 76.3001 122.5 77.1001 122.1 77.6001C121.1 78.8001 118.4 81.5001 114 82.2001C113.4 82.3001 112.8 82.3001 112.3 82.3001Z" fill="#263959"/>
<path d="M100.3 77.1003C95.0001 78.3003 89.1 79.4003 82.7 80.1003C78.1 80.6003 73.8 80.9003 69.7 81.1003C66.7 76.0003 62.4 66.7003 62.3 54.5003C62.3 47.3003 63.7001 41.2003 65.3001 36.6003C68.1001 34.5003 72.6 31.7003 78.6 29.7003C84.6 27.7003 89.9 27.3003 93.5 27.4003C96.3 31.6003 100.9 39.8003 102.5 51.1003C104.2 62.8003 101.9 72.3003 100.3 77.1003Z" fill="#2B2045"/>
<path opacity="0.63" d="M101.4 61.4C99 50.6 90 43.2 80.6 43.3C70.6 43.4 64.6 52 64 52.9C63.7 51.5 63.5 49.7 63.6 47.6C63.8 43.3 65.2 40 66.2 38C69.5 39.3 74.9 41 81.8 41C87.9 41 92.9 39.7 96 38.6C97.3 40.8 98.6 43.7 99.7 47.1C101.5 52.9 101.6 58 101.4 61.4Z" fill="#006DAB"/>
<path d="M93.9 73.9002C92.8 73.9002 91.8 73.4002 91 72.5002C90.3 71.6002 88.2 69.4002 84.8 68.7002C81.8 68.1002 79.4 69.0002 78.2 69.6002C76.4 70.5002 74.2 69.8002 73.3 67.9002C72.4 66.1002 73.1 63.9002 75 63.0002C77 62.0002 81.2 60.5002 86.3 61.5002C92.1 62.6002 95.6 66.4002 96.8 67.9002C98.1 69.5002 97.8 71.8002 96.2 73.0002C95.6 73.6002 94.7 73.9002 93.9 73.9002Z" fill="#6BBDFF"/>
<path d="M143.989 60.7298C142.889 60.7298 141.889 60.2298 141.089 59.3298C140.389 58.4298 138.289 56.2298 134.889 55.5298C131.889 54.9298 129.489 55.8298 128.289 56.4298C126.489 57.3298 124.289 56.6298 123.389 54.7298C122.489 52.9298 123.189 50.7298 125.089 49.8298C127.089 48.8298 131.289 47.3298 136.389 48.3298C142.189 49.4298 145.689 53.2298 146.889 54.7298C148.189 56.3298 147.889 58.6298 146.289 59.8298C145.689 60.4298 144.789 60.7298 143.989 60.7298Z" fill="#6BBDFF"/>
<path opacity="0.35" d="M150.9 57.9004C149.3 58.8004 147.6 59.6004 145.8 60.4004C135.8 64.4004 126.4 64.0004 120.1 63.1004C121.7 66.2004 123.3 69.3004 124.8 72.4004C133.5 70.9004 142.1 69.5004 150.8 68.0004C151 66.4004 151.1 64.7004 151.1 62.8004C151 61.0004 151 59.4004 150.9 57.9004Z" fill="#84007D"/>
<path opacity="0.35" d="M100.5 64.8003C98.6 65.7003 96.6 66.6003 94.4 67.4003C84.6 71.2003 75.4 72.6003 67.8 73.0003C68.7 75.1003 69.6 77.2003 70.5 79.3003C74.6 79.1003 79.2 78.8003 84.1 78.1003C89.8 77.3003 95 76.2003 99.5 75.0003C99.7 73.7003 99.9 72.3003 100 70.9003C100.2 68.8003 100.4 66.8003 100.5 64.8003Z" fill="#84007D"/>
<path d="M67 104.7C67.1 104.9 69.7 108.4 68 112.5C66.9 115.2 64.3 117 61.4 117.3C60.3 118.9 59.0999 120.8 58.0999 122.4C55.7999 125.9 53.5 129.4 51.2 133C51.4 136.1 49.7999 139 47.0999 140.3C44.7999 141.4 41.9 141.2 39.7 139.4C37.6 137.7 36.6 134.8 37.5 132C38.3 129.6 40.4 127.9 42.9 127.4C46.1 121.2 49.3 114.9 52.4 108.7C52.6 108.3 54.2999 104.1 59 103C63.2999 102 66.6 104.4 67 104.7Z" fill="#263959"/>
<path d="M41.3 97.8C42.1 102.2 43.1 106.8 44.2001 111.6C45.4001 116.4 46.6001 120.9 47.9001 125.1C47 130.2 43.4 134.3 38.6 135.4C33.3 136.6 29.1 133.5 28.5 133C25.4 129.6 21.6 124.5 18.5 117.8C16.4 113.2 15.1 108.9 14.3 105.3C14.8 104.1 17.5 98.3 24.2 95.7C33 92.3 40.6 97.3 41.3 97.8Z" fill="#DFEBF5"/>
<path d="M62.9 111.2C61.5 112.6 61 114.4 61.8 115.2C62.6 116 64.4 115.5 65.8 114.1C67.2 112.7 67.7 110.9 66.9 110.1C66.1 109.4 64.3 109.8 62.9 111.2Z" fill="#DFEBF5"/>
<path d="M22.0001 108C23.4001 108.6 25.2001 109.6 27.0001 111.1C29.0001 112.6 30.4001 114.2 31.4001 115.5C30.1001 116.2 27.9001 117.2 25.1001 117.6C23.0001 117.9 21.2001 117.7 19.9001 117.5C19.8001 116.1 19.8001 114 20.5001 111.6C21.0001 110.1 21.5001 108.9 22.0001 108Z" fill="#263959"/>
<path d="M27.3 98.9998C28.4 96.2998 29 94.7998 28.9 92.6998C28.7 89.6998 27.2 89.2998 26.9 85.9998C26.5 82.2998 28.3 80.4998 27.1 79.2998C26.2 78.2998 24.3 78.5998 23.2 79.0998C21.2 79.9998 20.1 82.3998 20.5 85.0998C18.7 84.7998 16.9 84.4998 15.2 84.1998C12.9 80.6998 9.3 79.5998 7.3 80.7998C6.1 81.4998 5 83.1998 5.4 84.9998C5.7 86.4998 6.9 87.7998 8.6 88.1998C7.9 88.9998 7.5 89.8998 7 90.6998C5.7 89.3998 3.6 89.0998 2 89.9998C0.299997 90.8998 -0.200003 92.7998 -3.11062e-06 94.3998C0.299997 95.8998 1.3 96.8998 1.6 97.0998C1.5 97.5998 1.3 98.8998 2.1 100.4C2.9 102 4.3 102.7 4.7 102.9C4.6 103.3 4.2 104.6 4.9 105.9C5.7 107.4 7.7 108.3 9.7 107.9C11.5 109.2 13.3 110.4 15.1 111.7C16.4 111.3 18.3 110.5 20.3 109C24.5 105.8 26.2 101.7 27.3 98.9998Z" fill="#263959"/>
<path d="M154.5 117.9C154.4 118.1 151.8 121.6 153.5 125.7C154.6 128.4 157.2 130.2 160.1 130.5C161.2 132.1 162.4 134 163.4 135.6C165.7 139.1 168 142.6 170.3 146.2C170.1 149.3 171.7 152.2 174.4 153.5C176.7 154.6 179.6 154.4 181.8 152.6C183.9 150.9 184.9 148 184 145.2C183.2 142.8 181.1 141.1 178.6 140.6C175.4 134.4 172.2 128.1 169.1 121.9C168.9 121.5 167.2 117.3 162.5 116.2C158.2 115.2 154.9 117.6 154.5 117.9Z" fill="#263959"/>
<path d="M180.3 111C179.5 115.4 178.5 120 177.4 124.8C176.2 129.6 175 134.1 173.7 138.3C174.6 143.4 178.2 147.5 183 148.6C188.3 149.8 192.5 146.7 193.1 146.2C196.2 142.8 200 137.7 203.1 131C205.2 126.4 206.5 122.1 207.3 118.5C206.8 117.3 204.1 111.5 197.4 108.9C188.6 105.5 180.9 110.5 180.3 111Z" fill="#DFEBF5"/>
<path d="M158.6 124.4C160 125.8 160.5 127.6 159.7 128.4C158.9 129.2 157.1 128.7 155.7 127.3C154.3 125.9 153.8 124.1 154.6 123.3C155.5 122.6 157.3 123 158.6 124.4Z" fill="#DFEBF5"/>
<path d="M199.5 121.2C198.1 121.8 196.3 122.8 194.5 124.3C192.5 125.8 191.1 127.4 190.1 128.7C191.4 129.4 193.6 130.4 196.4 130.8C198.5 131.1 200.3 130.9 201.6 130.7C201.7 129.3 201.7 127.2 201 124.8C200.6 123.3 200 122.1 199.5 121.2Z" fill="#263959"/>
<path d="M194.3 112.2C193.2 109.5 192.6 108 192.7 105.9C192.9 102.9 194.4 102.5 194.7 99.2C195.1 95.5 193.3 93.7 194.5 92.5C195.4 91.5 197.3 91.8 198.4 92.3C200.4 93.2 201.5 95.6 201.1 98.3C202.9 98 204.7 97.7 206.4 97.4C208.7 93.9 212.3 92.8 214.3 94C215.5 94.7 216.6 96.4 216.2 98.2C215.9 99.7 214.7 101 213 101.4C213.4 102.2 213.9 103.1 214.3 103.9C215.6 102.6 217.7 102.3 219.3 103.2C221 104.1 221.5 106 221.3 107.6C221 109.1 220 110.1 219.7 110.3C219.8 110.8 220 112.1 219.2 113.6C218.4 115.2 217 115.9 216.6 116.1C216.7 116.5 217.1 117.8 216.4 119.1C215.6 120.6 213.6 121.5 211.6 121.1C209.8 122.4 208 123.6 206.2 124.9C204.9 124.5 203 123.7 201 122.2C197 119 195.4 114.9 194.3 112.2Z" fill="#263959"/>
</g>
<defs>
<clipPath id="clip0">
<rect width="221.5" height="244.8" fill="white"/>
</clipPath>
</defs>
</svg>
